<?xml version="1.0" encoding="UTF-8"?>
<!DOCTYPE svg PUBLIC "-//W3C//DTD SVG 1.0//EN" "http://www.w3.org/TR/2001/REC-SVG-20010904/DTD/svg10.dtd">
<!-- Creator: CorelDRAW -->
<svg xmlns="http://www.w3.org/2000/svg" xml:space="preserve" width="102px" height="80px" version="1.0" style="shape-rendering:geometricPrecision; text-rendering:geometricPrecision; image-rendering:optimizeQuality; fill-rule:evenodd; clip-rule:evenodd"
viewBox="0 0 21.99 17.19"
 xmlns:xlink="http://www.w3.org/1999/xlink"
 xmlns:xodm="http://www.corel.com/coreldraw/odm/2003">
 <defs>
  <style type="text/css">
   <![CDATA[
    .fil1 {fill:black;fill-rule:nonzero}
    .fil0 {fill:#B00006;fill-rule:nonzero}
   ]]>
  </style>
 </defs>
 <g id="Capa_x0020_1">
  <metadata id="CorelCorpID_0Corel-Layer"/>
  <path class="fil0" d="M5.14 16.8l0 0.23 -1.09 0 0 -1.46 1.06 0 0 0.23 -0.79 0 0 0.38 0.7 0 0 0.22 -0.7 0 0 0.4 0.82 0z"/>
  <path id="_1" class="fil0" d="M7.41 15.57l-0.64 1.46 -0.26 0 -0.64 -1.46 0.29 0 0.49 1.12 0.49 -1.12 0.27 0z"/>
  <path id="_2" class="fil0" d="M9.31 16.8l0 0.23 -1.09 0 0 -1.46 1.06 0 0 0.23 -0.79 0 0 0.38 0.7 0 0 0.22 -0.7 0 0 0.4 0.82 0z"/>
  <path id="_3" class="fil0" d="M11.56 15.57l0 1.46 -0.22 0 -0.8 -0.99 0 0.99 -0.27 0 0 -1.46 0.22 0 0.8 0.99 0 -0.99 0.27 0z"/>
  <path id="_4" class="fil0" d="M12.9 15.8l-0.48 0 0 -0.23 1.24 0 0 0.23 -0.49 0 0 1.23 -0.27 0 0 -1.23z"/>
  <path id="_5" class="fil0" d="M15.18 17.05c-0.15,0 -0.29,-0.03 -0.41,-0.1 -0.11,-0.06 -0.21,-0.15 -0.28,-0.27 -0.06,-0.11 -0.1,-0.24 -0.1,-0.38 0,-0.14 0.04,-0.27 0.1,-0.38 0.07,-0.12 0.17,-0.21 0.28,-0.27 0.12,-0.07 0.26,-0.1 0.41,-0.1 0.14,0 0.28,0.03 0.4,0.1 0.12,0.06 0.21,0.15 0.28,0.26 0.07,0.12 0.1,0.25 0.1,0.39 0,0.14 -0.03,0.27 -0.1,0.38 -0.07,0.12 -0.16,0.21 -0.28,0.27 -0.12,0.07 -0.26,0.1 -0.4,0.1zm0 -0.24c0.09,0 0.18,-0.02 0.26,-0.06 0.08,-0.05 0.14,-0.11 0.18,-0.19 0.05,-0.08 0.07,-0.16 0.07,-0.26 0,-0.1 -0.02,-0.19 -0.07,-0.26 -0.04,-0.08 -0.1,-0.14 -0.18,-0.19 -0.08,-0.04 -0.17,-0.06 -0.26,-0.06 -0.1,0 -0.19,0.02 -0.27,0.06 -0.07,0.05 -0.13,0.11 -0.18,0.19 -0.04,0.07 -0.07,0.16 -0.07,0.26 0,0.1 0.03,0.18 0.07,0.26 0.05,0.08 0.11,0.14 0.18,0.19 0.08,0.04 0.17,0.06 0.27,0.06z"/>
  <path id="_6" class="fil0" d="M17.35 17.05c-0.11,0 -0.22,-0.02 -0.32,-0.05 -0.11,-0.03 -0.19,-0.07 -0.25,-0.13l0.09 -0.21c0.06,0.05 0.14,0.09 0.22,0.12 0.09,0.03 0.18,0.04 0.26,0.04 0.11,0 0.19,-0.01 0.25,-0.05 0.05,-0.03 0.08,-0.08 0.08,-0.14 0,-0.04 -0.02,-0.07 -0.05,-0.1 -0.03,-0.03 -0.07,-0.05 -0.11,-0.06 -0.05,-0.02 -0.11,-0.04 -0.19,-0.05 -0.11,-0.03 -0.2,-0.06 -0.27,-0.08 -0.07,-0.03 -0.13,-0.07 -0.17,-0.13 -0.05,-0.05 -0.08,-0.13 -0.08,-0.23 0,-0.08 0.02,-0.15 0.07,-0.21 0.04,-0.07 0.11,-0.12 0.2,-0.16 0.08,-0.04 0.19,-0.06 0.32,-0.06 0.09,0 0.17,0.01 0.26,0.03 0.09,0.03 0.16,0.06 0.22,0.1l-0.08 0.21c-0.07,-0.04 -0.13,-0.07 -0.2,-0.09 -0.07,-0.02 -0.14,-0.03 -0.2,-0.03 -0.11,0 -0.19,0.02 -0.24,0.06 -0.05,0.03 -0.08,0.08 -0.08,0.14 0,0.04 0.02,0.08 0.04,0.1 0.03,0.03 0.07,0.05 0.12,0.07 0.04,0.01 0.11,0.03 0.19,0.05 0.1,0.02 0.19,0.05 0.26,0.08 0.07,0.02 0.13,0.07 0.18,0.12 0.05,0.06 0.07,0.13 0.07,0.23 0,0.08 -0.02,0.15 -0.06,0.21 -0.05,0.07 -0.11,0.12 -0.2,0.16 -0.09,0.04 -0.2,0.06 -0.33,0.06z"/>
  <path class="fil0" d="M0 16.3c0.04,0.12 0.46,0.11 0.46,0.11 -0.09,0.05 -0.11,0.25 -0.11,0.25 0.27,-0.01 0.4,-0.27 0.4,-0.27l0.16 0c-0.13,0.1 -0.17,0.38 -0.17,0.38 0.32,-0.07 0.46,-0.34 0.46,-0.34l1.89 0 0 0.1c0,0 -1.42,0 -1.65,0 -0.22,0 -0.3,0.19 -0.3,0.34 0,0.1 0.05,0.32 0.29,0.32 0.24,0 0.25,-0.19 0.25,-0.23 0,-0.03 0.01,-0.16 -0.14,-0.16 -0.14,0 -0.12,0.18 -0.12,0.18 0,0 -0.11,0.01 -0.11,-0.1 0,-0.17 0.1,-0.16 0.2,-0.16 0.08,0 0.72,0 0.72,0l0.13 0.15 0.13 -0.15 0.79 0 0 -0.27 0.11 0 0.15 0.1 0.21 -0.25 -0.21 -0.26 -0.15 0.1 -0.11 0 0 -0.26 -0.79 0 -0.13 -0.16 -0.13 0.16c0,0 -0.64,0 -0.72,0 -0.1,0 -0.2,0 -0.2,-0.16 0,-0.11 0.11,-0.1 0.11,-0.1 0,0 -0.02,0.18 0.12,0.18 0.15,0 0.14,-0.13 0.14,-0.17 0,-0.03 -0.01,-0.22 -0.25,-0.22 -0.24,0 -0.29,0.22 -0.29,0.31 0,0.16 0.08,0.34 0.3,0.34 0.23,0 1.65,0 1.65,0l0 0.11 -1.89 0c0,0 -0.14,-0.28 -0.46,-0.34 0,0 0.04,0.28 0.17,0.38l-0.16 0c0,0 -0.13,-0.26 -0.4,-0.27 0,0 0.02,0.19 0.11,0.25 0,0 -0.42,-0.02 -0.46,0.11zm21.99 0c-0.04,0.12 -0.46,0.11 -0.46,0.11 0.09,0.05 0.11,0.25 0.11,0.25 -0.27,-0.01 -0.4,-0.27 -0.4,-0.27l-0.16 0c0.13,0.1 0.17,0.38 0.17,0.38 -0.32,-0.07 -0.46,-0.34 -0.46,-0.34l-1.89 0 0 0.1c0,0 1.42,0 1.65,0 0.22,0 0.3,0.19 0.3,0.34 0,0.1 -0.05,0.32 -0.29,0.32 -0.24,0 -0.25,-0.19 -0.25,-0.23 0,-0.03 -0.01,-0.16 0.14,-0.16 0.14,0 0.12,0.18 0.12,0.18 0,0 0.11,0.01 0.11,-0.1 0,-0.17 -0.09,-0.16 -0.19,-0.16 -0.08,0 -0.72,0 -0.72,0l-0.14 0.15 -0.13 -0.15 -0.79 0 0 -0.27 -0.11 0 -0.15 0.1 -0.2 -0.25 0.2 -0.26 0.15 0.1 0.11 0 0 -0.26 0.79 0 0.13 -0.15 0.14 0.15c0,0 0.64,0 0.72,0 0.1,0 0.19,0 0.19,-0.16 0,-0.11 -0.11,-0.1 -0.11,-0.1 0,0 0.02,0.18 -0.12,0.18 -0.15,0 -0.14,-0.13 -0.14,-0.17 0,-0.03 0.01,-0.22 0.25,-0.22 0.24,0 0.29,0.22 0.29,0.32 0,0.15 -0.08,0.33 -0.3,0.33 -0.23,0 -1.65,0 -1.65,0l0 0.11 1.89 0c0,0 0.14,-0.28 0.46,-0.34 0,0 -0.04,0.28 -0.17,0.38l0.16 0c0,0 0.13,-0.26 0.4,-0.27 0,0 -0.02,0.19 -0.11,0.25 0,0 0.42,-0.02 0.46,0.11z"/>
  <path class="fil1" d="M8.62 6.69c-0.53,1.1 -0.92,2.31 -0.92,3.55 0,1.37 0.38,1.98 1.8,2.02 -0.02,-0.19 -0.05,-0.34 -0.05,-0.53 0,-2.65 1.44,-4.6 3.28,-4.6 0.85,0 1.32,0.65 1.32,1.46 0,1.94 -2.44,3.7 -4.31,3.85 0.08,0.94 0.31,1.5 0.31,1.58 0,0.07 -0.04,0.11 -0.09,0.11 -0.1,0 -0.39,-1.18 -0.42,-1.67 -1.92,0 -2.92,-1.17 -2.92,-2.97 0,-0.85 0.44,-2.09 0.84,-2.83 -1.73,-0.16 -3.22,-1.45 -3.22,-3.16 0,-2.04 1.7,-3.5 4.09,-3.5 1.24,0 2.95,0.61 4.04,1.97 1.14,-0.65 2.77,-1.46 4.13,-1.46 0.71,0 1.25,0.32 1.25,1.09 0,2 -4.99,4.95 -9.13,5.09zm-4.11 -3.5c0,1.73 1.87,2.77 3.29,2.85 1.01,-1.69 3.08,-3.19 4.4,-3.97 -0.98,-1.22 -2.51,-1.87 -4.04,-1.87 -2.12,0 -3.65,1.45 -3.65,2.99zm8.03 -0.97c0.58,0.75 1,1.67 1,1.7 0,0.07 -0.01,0.1 -0.1,0.1 -0.1,0 -0.2,-0.57 -1.05,-1.71 -1.48,0.95 -2.65,2.27 -3.53,3.8 4.63,0 8.69,-2.85 8.69,-4.55 0,-0.44 -0.24,-0.85 -0.92,-0.85 -1.42,0 -3.19,0.89 -4.09,1.51zm0.26 5.18c-1.43,0 -3.08,2.45 -3.08,4.48l0 0.38c1.7,-0.07 4.13,-1.82 4.13,-3.69 0,-0.69 -0.34,-1.17 -1.05,-1.17z"/>
 </g>
</svg>
