<?xml version="1.0" encoding="UTF-8"?>
<!DOCTYPE svg PUBLIC "-//W3C//DTD SVG 1.0//EN" "http://www.w3.org/TR/2001/REC-SVG-20010904/DTD/svg10.dtd">
<!-- Creator: CorelDRAW -->
<svg xmlns="http://www.w3.org/2000/svg" xml:space="preserve" width="168px" height="131px" version="1.0" style="shape-rendering:geometricPrecision; text-rendering:geometricPrecision; image-rendering:optimizeQuality; fill-rule:evenodd; clip-rule:evenodd"
viewBox="0 0 36.22 28.31"
 xmlns:xlink="http://www.w3.org/1999/xlink"
 xmlns:xodm="http://www.corel.com/coreldraw/odm/2003">
 <defs>
  <style type="text/css">
   <![CDATA[
    .fil1 {fill:black;fill-rule:nonzero}
    .fil0 {fill:#B00006;fill-rule:nonzero}
   ]]>
  </style>
 </defs>
 <g id="Capa_x0020_1">
  <metadata id="CorelCorpID_0Corel-Layer"/>
  <path class="fil0" d="M8.47 27.67l0 0.37 -1.8 0 0 -2.39 1.75 0 0 0.37 -1.31 0 0 0.62 1.16 0 0 0.37 -1.16 0 0 0.66 1.36 0z"/>
  <path id="_1" class="fil0" d="M12.2 25.65l-1.04 2.39 -0.44 0 -1.05 -2.39 0.48 0 0.8 1.85 0.81 -1.85 0.44 0z"/>
  <path id="_2" class="fil0" d="M15.33 27.67l0 0.37 -1.79 0 0 -2.39 1.75 0 0 0.37 -1.31 0 0 0.62 1.16 0 0 0.37 -1.16 0 0 0.66 1.35 0z"/>
  <path id="_3" class="fil0" d="M19.04 25.65l0 2.39 -0.36 0 -1.33 -1.62 0 1.62 -0.44 0 0 -2.39 0.37 0 1.32 1.62 0 -1.62 0.44 0z"/>
  <path id="_4" class="fil0" d="M21.25 26.02l-0.79 0 0 -0.37 2.03 0 0 0.37 -0.79 0 0 2.02 -0.45 0 0 -2.02z"/>
  <path id="_5" class="fil0" d="M25 28.08c-0.25,0 -0.47,-0.05 -0.67,-0.16 -0.19,-0.11 -0.35,-0.25 -0.46,-0.44 -0.11,-0.19 -0.17,-0.4 -0.17,-0.63 0,-0.24 0.06,-0.45 0.17,-0.64 0.11,-0.19 0.27,-0.33 0.46,-0.44 0.2,-0.1 0.42,-0.16 0.67,-0.16 0.24,0 0.46,0.06 0.66,0.16 0.19,0.11 0.35,0.25 0.46,0.44 0.11,0.19 0.17,0.4 0.17,0.64 0,0.23 -0.06,0.44 -0.17,0.63 -0.11,0.19 -0.27,0.33 -0.46,0.44 -0.2,0.11 -0.42,0.16 -0.66,0.16zm0 -0.39c0.16,0 0.3,-0.04 0.43,-0.11 0.13,-0.07 0.23,-0.17 0.3,-0.3 0.07,-0.13 0.11,-0.27 0.11,-0.43 0,-0.16 -0.04,-0.31 -0.11,-0.44 -0.07,-0.13 -0.17,-0.23 -0.3,-0.3 -0.13,-0.07 -0.27,-0.11 -0.43,-0.11 -0.16,0 -0.31,0.04 -0.44,0.11 -0.12,0.07 -0.22,0.17 -0.3,0.3 -0.07,0.13 -0.11,0.28 -0.11,0.44 0,0.16 0.04,0.3 0.11,0.43 0.08,0.13 0.18,0.23 0.3,0.3 0.13,0.07 0.28,0.11 0.44,0.11z"/>
  <path id="_6" class="fil0" d="M28.58 28.08c-0.18,0 -0.36,-0.03 -0.53,-0.08 -0.17,-0.05 -0.31,-0.12 -0.41,-0.21l0.15 -0.35c0.1,0.08 0.22,0.15 0.36,0.2 0.15,0.04 0.29,0.07 0.43,0.07 0.18,0 0.32,-0.03 0.4,-0.09 0.09,-0.05 0.14,-0.13 0.14,-0.22 0,-0.07 -0.03,-0.13 -0.08,-0.17 -0.05,-0.05 -0.11,-0.08 -0.19,-0.11 -0.07,-0.02 -0.17,-0.05 -0.3,-0.08 -0.19,-0.05 -0.33,-0.09 -0.45,-0.13 -0.11,-0.05 -0.21,-0.11 -0.29,-0.21 -0.08,-0.09 -0.12,-0.21 -0.12,-0.37 0,-0.13 0.04,-0.25 0.11,-0.36 0.07,-0.11 0.18,-0.2 0.32,-0.26 0.15,-0.07 0.33,-0.1 0.54,-0.1 0.14,0 0.29,0.02 0.43,0.06 0.14,0.03 0.26,0.09 0.36,0.15l-0.14 0.35c-0.1,-0.06 -0.21,-0.11 -0.32,-0.14 -0.12,-0.03 -0.23,-0.05 -0.34,-0.05 -0.17,0 -0.3,0.03 -0.39,0.09 -0.09,0.06 -0.13,0.14 -0.13,0.24 0,0.07 0.03,0.12 0.08,0.17 0.04,0.04 0.11,0.07 0.18,0.1 0.08,0.02 0.18,0.05 0.31,0.08 0.18,0.04 0.33,0.09 0.44,0.13 0.11,0.05 0.21,0.11 0.29,0.21 0.08,0.09 0.12,0.21 0.12,0.37 0,0.13 -0.03,0.25 -0.1,0.36 -0.08,0.1 -0.19,0.19 -0.33,0.25 -0.15,0.07 -0.33,0.1 -0.54,0.1z"/>
  <path class="fil0" d="M0 26.85c0.06,0.2 0.76,0.17 0.76,0.17 -0.15,0.1 -0.19,0.42 -0.19,0.42 0.46,-0.02 0.66,-0.44 0.66,-0.44l0.28 0c-0.22,0.16 -0.29,0.61 -0.29,0.61 0.53,-0.1 0.76,-0.56 0.76,-0.56l3.1 0 0 0.18c0,0 -2.33,0 -2.7,0 -0.37,0 -0.51,0.3 -0.51,0.56 0,0.16 0.09,0.52 0.49,0.52 0.39,0 0.41,-0.31 0.41,-0.37 0,-0.06 0.01,-0.27 -0.23,-0.27 -0.24,0 -0.2,0.29 -0.2,0.29 0,0 -0.18,0.02 -0.18,-0.16 0,-0.27 0.16,-0.26 0.32,-0.26 0.13,0 1.19,0 1.19,0l0.22 0.25 0.21 -0.25 1.31 0 0 -0.44 0.18 0 0.24 0.17 0.34 -0.42 -0.34 -0.43 -0.24 0.17 -0.18 0 0 -0.44 -1.31 0 -0.21 -0.25 -0.22 0.25c0,0 -1.06,0 -1.19,0 -0.16,0 -0.32,0.01 -0.32,-0.26 0,-0.18 0.18,-0.16 0.18,-0.16 0,0 -0.04,0.29 0.2,0.29 0.24,0 0.23,-0.21 0.23,-0.27 0,-0.06 -0.02,-0.37 -0.41,-0.37 -0.4,0 -0.49,0.36 -0.49,0.52 0,0.26 0.14,0.56 0.51,0.56 0.37,0 2.7,0 2.7,0l0 0.18 -3.1 0c0,0 -0.23,-0.46 -0.76,-0.56 0,0 0.07,0.45 0.29,0.61l-0.28 0c0,0 -0.2,-0.42 -0.66,-0.44 0,0 0.04,0.32 0.19,0.42 0,0 -0.7,-0.03 -0.76,0.18zm36.22 0c-0.06,0.2 -0.76,0.17 -0.76,0.17 0.16,0.1 0.19,0.42 0.19,0.42 -0.46,-0.02 -0.66,-0.44 -0.66,-0.44l-0.27 0c0.21,0.16 0.28,0.61 0.28,0.61 -0.53,-0.1 -0.76,-0.56 -0.76,-0.56l-3.1 0 0 0.18c0,0 2.34,0 2.7,0 0.37,0 0.51,0.3 0.51,0.56 0,0.16 -0.09,0.52 -0.49,0.52 -0.39,0 -0.41,-0.31 -0.41,-0.37 0,-0.06 -0.01,-0.27 0.23,-0.27 0.24,0 0.2,0.29 0.2,0.29 0,0 0.18,0.02 0.18,-0.16 0,-0.27 -0.15,-0.26 -0.32,-0.26 -0.13,0 -1.18,0 -1.18,0l-0.22 0.25 -0.22 -0.25 -1.3 0 0 -0.44 -0.19 0 -0.24 0.17 -0.34 -0.42 0.34 -0.43 0.24 0.17 0.19 0 0 -0.44 1.3 0 0.22 -0.25 0.22 0.25c0,0 1.05,0 1.18,0 0.17,0 0.32,0.01 0.32,-0.26 0,-0.18 -0.18,-0.16 -0.18,-0.16 0,0 0.04,0.29 -0.2,0.29 -0.24,0 -0.23,-0.21 -0.23,-0.27 0,-0.06 0.02,-0.37 0.41,-0.37 0.4,0 0.49,0.36 0.49,0.52 0,0.26 -0.14,0.56 -0.51,0.56 -0.36,0 -2.7,0 -2.7,0l0 0.18 3.1 0c0,0 0.23,-0.46 0.76,-0.56 0,0 -0.07,0.45 -0.28,0.61l0.27 0c0,0 0.2,-0.42 0.66,-0.44 0,0 -0.03,0.32 -0.19,0.42 0,0 0.7,-0.03 0.76,0.18z"/>
  <path class="fil1" d="M14.2 11.02c-0.87,1.82 -1.51,3.8 -1.51,5.84 0,2.27 0.61,3.27 2.96,3.33 -0.03,-0.31 -0.08,-0.56 -0.08,-0.87 0,-4.36 2.37,-7.58 5.39,-7.58 1.4,0 2.18,1.07 2.18,2.41 0,3.19 -4.02,6.1 -7.1,6.35 0.14,1.53 0.5,2.46 0.5,2.6 0,0.11 -0.05,0.17 -0.13,0.17 -0.17,0 -0.65,-1.93 -0.7,-2.75 -3.16,0 -4.81,-1.92 -4.81,-4.89 0,-1.4 0.72,-3.44 1.39,-4.67 -2.85,-0.25 -5.31,-2.37 -5.31,-5.2 0,-3.35 2.8,-5.76 6.74,-5.76 2.04,0 4.87,1.01 6.66,3.24 1.87,-1.06 4.55,-2.4 6.79,-2.4 1.18,0 2.07,0.53 2.07,1.79 0,3.3 -8.22,8.16 -15.04,8.39zm-6.77 -5.76c0,2.85 3.07,4.55 5.42,4.69 1.65,-2.79 5.07,-5.25 7.25,-6.54 -1.63,-2.01 -4.14,-3.07 -6.66,-3.07 -3.49,0 -6.01,2.37 -6.01,4.92zm13.23 -1.6c0.95,1.23 1.65,2.74 1.65,2.8 0,0.11 -0.03,0.17 -0.17,0.17 -0.17,0 -0.34,-0.95 -1.74,-2.83 -2.43,1.57 -4.36,3.75 -5.81,6.27 7.63,0 14.31,-4.7 14.31,-7.5 0,-0.72 -0.39,-1.4 -1.51,-1.4 -2.34,0 -5.25,1.46 -6.73,2.49zm0.42 8.53c-2.35,0 -5.07,4.03 -5.07,7.38l0 0.62c2.8,-0.11 6.8,-2.99 6.8,-6.07 0,-1.14 -0.56,-1.93 -1.73,-1.93z"/>
 </g>
</svg>
