<?xml version="1.0" encoding="UTF-8"?>
<!DOCTYPE svg PUBLIC "-//W3C//DTD SVG 1.1//EN" "http://www.w3.org/Graphics/SVG/1.1/DTD/svg11.dtd">
<!-- Creator: CorelDRAW -->
<svg xmlns="http://www.w3.org/2000/svg" xml:space="preserve" width="242px" height="100px" version="1.1" style="shape-rendering:geometricPrecision; text-rendering:geometricPrecision; image-rendering:optimizeQuality; fill-rule:evenodd; clip-rule:evenodd"
viewBox="0 0 20.42 8.44"
 xmlns:xlink="http://www.w3.org/1999/xlink"
 xmlns:xodm="http://www.corel.com/coreldraw/odm/2003">
 <defs>
  <style type="text/css">
   <![CDATA[
    .fil2 {fill:#FEFEFE}
    .fil1 {fill:#A60D10;fill-rule:nonzero}
    .fil0 {fill:white;fill-rule:nonzero}
   ]]>
  </style>
 </defs>
 <g id="Capa_x0020_1">
  <metadata id="CorelCorpID_0Corel-Layer"/>
  <path class="fil0" d="M8.92 4.18c-0.26,0.31 -1.3,1.91 -1.3,2.23 0,0.07 0.04,0.12 0.15,0.12 0.27,0 0.76,-0.46 1.28,-1.08 0.09,-0.1 0.11,-0.13 0.13,-0.14 0.05,-0.06 0.14,-0.17 0.29,-0.32 0.27,-0.3 0.82,-0.95 1.23,-1.55l-0.33 0c-0.03,0 -0.04,-0.03 -0.04,-0.06 0,-0.02 0.03,-0.05 0.04,-0.05l0.37 0 0.54 -0.87 0.55 -0.03 -0.58 0.9 1.05 0c0.02,0 0.05,0.02 0.05,0.05 0,0.03 -0.01,0.06 -0.05,0.06l-1.11 0c-0.28,0.49 -1.72,2.54 -1.72,2.96 0,0.09 0.06,0.13 0.18,0.13 0.27,0 0.58,-0.23 0.99,-0.64 0.33,-0.32 0.63,-0.7 0.96,-1.04 0.18,-0.19 0.41,-0.42 0.72,-0.68l0.5 -0.03c-1.1,1.76 -1.3,1.89 -1.3,2.24 0,0.11 0.08,0.15 0.15,0.15 0.47,0 1.68,-1.39 2.24,-2.36l0.57 -0.03c-0.24,0.42 -1.36,1.84 -1.36,2.24 0,0.1 0.05,0.15 0.16,0.15 0.12,0 0.42,-0.18 0.84,-0.62 0.29,-0.29 0.42,-0.44 0.49,-0.52 0.17,-0.22 1.05,-1.09 1.82,-2.34l1.08 -1.77 0.59 -0.06c-2.34,3.69 -3.1,4.79 -3.1,5.2 0,0.05 0.07,0.11 0.15,0.11 0.28,0 0.59,-0.23 1.04,-0.68 0.24,-0.24 0.36,-0.39 0.43,-0.47 0.06,-0.1 0.32,-0.35 0.5,-0.53 0.52,-0.5 1.07,-0.71 1.48,-0.71 0.34,0 0.54,0.26 0.54,0.62 0,0.37 -0.26,0.86 -0.53,1.13 0.01,0 0.04,0.01 0.1,0.01 0.3,0 0.61,-0.18 0.83,-0.44 0.12,-0.13 0.13,-0.15 0.16,-0.15 0.03,0 0.04,0.02 0.04,0.04 0,0.02 -0.02,0.06 -0.22,0.27 -0.23,0.24 -0.54,0.39 -0.9,0.39 -0.06,0 -0.09,0 -0.11,-0.01 -0.28,0.32 -0.65,0.64 -1.16,0.64 -0.36,0 -0.55,-0.31 -0.55,-0.8 0,-0.32 0.04,-0.41 0.04,-0.47 0,-0.03 -0.01,-0.05 -0.03,-0.05 -0.02,0 -0.04,0.01 -0.06,0.03 -0.03,0.05 -0.22,0.27 -0.34,0.4 -0.52,0.56 -0.95,0.89 -1.29,0.89 -0.3,0 -0.39,-0.21 -0.39,-0.45 0,-0.54 0.3,-0.79 0.92,-1.82l-0.02 -0.01c-0.15,0.18 -0.29,0.36 -0.59,0.68 -0.22,0.24 -0.31,0.35 -0.36,0.4 -0.11,0.13 -0.32,0.37 -0.47,0.52 -0.46,0.47 -0.74,0.68 -0.98,0.68 -0.32,0 -0.38,-0.36 -0.38,-0.57 0,-0.13 0.03,-0.25 0.06,-0.35l-0.01 -0.01c-0.26,0.27 -0.82,0.93 -1.24,0.93 -0.29,0 -0.41,-0.21 -0.41,-0.48 0,-0.69 0.58,-1.19 0.93,-1.7l-0.02 -0.01c-0.55,0.41 -0.92,0.99 -1.41,1.45 -0.55,0.55 -0.87,0.74 -1.12,0.74 -0.31,-0.01 -0.43,-0.23 -0.43,-0.44 0,-0.51 0.31,-0.95 0.84,-1.71l-0.02 -0.02c-0.17,0.21 -0.3,0.35 -0.55,0.63 -0.05,0.06 -0.18,0.23 -0.27,0.32 -0.09,0.1 -0.3,0.34 -0.45,0.51 -0.42,0.43 -0.76,0.71 -1,0.71 -0.25,0 -0.4,-0.12 -0.4,-0.62 0,-0.06 0.01,-0.12 0.01,-0.16 -0.27,0.27 -0.78,0.78 -1.12,0.78 -0.46,0 -0.57,-0.41 -0.57,-0.82 0,-0.14 0.02,-0.28 0.05,-0.42 -0.02,0 -0.04,0.03 -0.06,0.03 -0.01,0 -0.03,-0.03 -0.03,-0.05 0,-0.03 0.03,-0.04 0.14,-0.19 0.49,-0.59 1.22,-1.05 1.84,-1.05 0.27,0 0.39,0.2 0.39,0.44 0,0.1 -0.01,0.19 -0.03,0.24l0.02 0.02c0.32,-0.51 0.3,-0.63 0.49,-0.64l0.44 -0.02zm9.7 0.07c-0.63,0 -1.46,1.19 -1.46,1.95 0,0.25 0.1,0.33 0.23,0.33 0.71,0 1.55,-1.06 1.55,-1.88 0,-0.21 -0.09,-0.4 -0.32,-0.4zm-16.16 -0.62c-0.28,0.59 -0.49,1.23 -0.49,1.89 0,0.73 0.2,1.05 0.96,1.07 -0.01,-0.1 -0.03,-0.18 -0.03,-0.28 0,-1.41 0.77,-2.44 1.74,-2.44 0.45,0 0.7,0.34 0.7,0.77 0,1.03 -1.3,1.97 -2.29,2.05 0.05,0.49 0.17,0.79 0.17,0.84 0,0.03 -0.02,0.05 -0.05,0.05 -0.05,0 -0.21,-0.62 -0.23,-0.88 -1.01,0 -1.54,-0.62 -1.54,-1.58 0,-0.45 0.23,-1.11 0.45,-1.5 -0.92,-0.08 -1.71,-0.77 -1.71,-1.68 0,-1.08 0.9,-1.85 2.17,-1.85 0.65,0 1.56,0.32 2.14,1.04 0.6,-0.34 1.47,-0.77 2.19,-0.77 0.38,0 0.66,0.17 0.66,0.57 0,1.07 -2.64,2.63 -4.84,2.7zm-2.18 -1.85c0,0.92 0.99,1.47 1.75,1.51 0.53,-0.9 1.63,-1.69 2.33,-2.11 -0.52,-0.64 -1.33,-0.99 -2.14,-0.99 -1.13,0 -1.94,0.77 -1.94,1.59zm4.26 -0.51c0.31,0.39 0.53,0.88 0.53,0.9 0,0.03 -0.01,0.05 -0.05,0.05 -0.06,0 -0.11,-0.31 -0.56,-0.91 -0.79,0.51 -1.41,1.21 -1.88,2.02 2.46,0 4.62,-1.51 4.62,-2.42 0,-0.23 -0.13,-0.45 -0.49,-0.45 -0.76,0 -1.69,0.47 -2.17,0.81zm0.13 2.74c-0.75,0 -1.63,1.3 -1.63,2.38l0 0.2c0.9,-0.04 2.19,-0.97 2.19,-1.96 0,-0.37 -0.18,-0.62 -0.56,-0.62zm1.57 2.52c0.52,0 1.65,-1.29 1.65,-1.96 0,-0.18 -0.09,-0.32 -0.28,-0.32 -0.73,0 -1.58,1.35 -1.58,2 0,0.17 0.07,0.28 0.21,0.28zm2.66 -4.12c0,0.44 -1.01,1.28 -1.2,1.28 -0.03,-0.01 -0.04,0 -0.04,-0.04 0,-0.06 0.31,-0.22 0.49,-0.49 0.32,-0.44 0.17,-0.95 0.54,-0.95 0.14,0 0.21,0.12 0.21,0.2z"/>
  <path class="fil0" d="M6.35 8.29l0 -0.76 -0.21 0 0 0.26 -0.13 0 0 -0.39 0.83 0 0 0.39 -0.13 0 0 -0.26 -0.21 0 0 0.76 0.13 0 0 0.13 -0.41 0 0 -0.13 0.13 0zm6.46 -0.38c0,-0.15 0.05,-0.28 0.14,-0.38 0.1,-0.1 0.23,-0.15 0.38,-0.15 0.16,0 0.29,0.05 0.39,0.15 0.1,0.1 0.15,0.23 0.15,0.38 0,0.15 -0.05,0.28 -0.15,0.38 -0.1,0.1 -0.23,0.15 -0.39,0.15 -0.1,0 -0.19,-0.03 -0.27,-0.07 -0.09,-0.05 -0.15,-0.12 -0.19,-0.2 -0.04,-0.09 -0.06,-0.17 -0.06,-0.26zm0.17 0c0,0.11 0.03,0.2 0.1,0.28 0.06,0.07 0.15,0.11 0.25,0.11 0.11,0 0.2,-0.04 0.27,-0.11 0.06,-0.08 0.1,-0.17 0.1,-0.28 0,-0.11 -0.04,-0.2 -0.11,-0.28 -0.07,-0.07 -0.15,-0.11 -0.26,-0.11 -0.1,0 -0.19,0.04 -0.25,0.11 -0.07,0.07 -0.1,0.17 -0.1,0.28zm-1.31 0.02l0.37 0c0,0.01 0,0.02 0,0.03 0,0.15 -0.04,0.26 -0.14,0.35 -0.09,0.09 -0.22,0.13 -0.37,0.13 -0.19,0 -0.32,-0.05 -0.42,-0.16 -0.09,-0.1 -0.13,-0.23 -0.13,-0.37 0,-0.15 0.05,-0.28 0.14,-0.38 0.09,-0.1 0.22,-0.15 0.38,-0.15 0.14,0 0.26,0.05 0.36,0.13l0 -0.11 0.13 0 0 0.33 -0.13 0c-0.03,-0.05 -0.07,-0.1 -0.14,-0.15 -0.06,-0.04 -0.13,-0.06 -0.21,-0.06 -0.11,0 -0.2,0.04 -0.27,0.11 -0.06,0.08 -0.09,0.17 -0.09,0.27 0,0.13 0.03,0.22 0.11,0.3 0.07,0.07 0.16,0.1 0.26,0.1 0.09,0 0.16,-0.02 0.22,-0.06 0.07,-0.05 0.1,-0.11 0.11,-0.18l-0.18 0 0 -0.13zm-2.31 0.36l0 -0.76 -0.15 0 0 -0.13 0.35 0 0.45 0.79 0 -0.66 -0.14 0 0 -0.13 0.42 0 0 0.13 -0.15 0 0 0.9 -0.16 0 -0.49 -0.87 0 0.73 0.14 0 0 0.13 -0.42 0 0 -0.13 0.15 0zm-1.21 -0.23l-0.37 0 -0.08 0.23 0.13 0 0 0.13 -0.41 0 0 -0.13 0.13 0 0.27 -0.78 -0.12 0 0 -0.11 0.53 0 0 0.11 -0.13 0 0.28 0.78 0.12 0 0 0.13 -0.4 0 0 -0.13 0.12 0 -0.07 -0.23zm-0.04 -0.12l-0.14 -0.43 -0.01 0 -0.14 0.43 0.29 0z"/>
  <path class="fil1" d="M16.11 7.9c-0.02,0.07 -0.26,0.06 -0.26,0.06 0.06,0.03 0.07,0.13 0.07,0.13 -0.15,0 -0.22,-0.14 -0.22,-0.14l-0.09 0c0.07,0.05 0.09,0.2 0.09,0.2 -0.17,-0.03 -0.25,-0.18 -0.25,-0.18l-1.02 0 0 0.06c0,0 0.77,0 0.89,0 0.12,0 0.17,0.1 0.17,0.18 0,0.05 -0.03,0.17 -0.16,0.17 -0.13,0 -0.14,-0.1 -0.14,-0.12 0,-0.02 0,-0.09 0.08,-0.09 0.08,0 0.06,0.1 0.06,0.1 0,0 0.06,0 0.06,-0.06 0,-0.09 -0.05,-0.08 -0.1,-0.08 -0.05,0 -0.39,0 -0.39,0l-0.08 0.08 -0.07 -0.08 -0.43 0 0 -0.15 -0.06 0 -0.08 0.06 -0.11 -0.14 0.11 -0.14 0.08 0.05 0.06 0 0 -0.14 0.43 0 0.07 -0.08 0.08 0.08c0,0 0.34,0 0.39,0 0.05,0 0.1,0 0.1,-0.09 0,-0.06 -0.06,-0.05 -0.06,-0.05 0,0 0.02,0.09 -0.06,0.09 -0.08,0 -0.08,-0.06 -0.08,-0.08 0,-0.02 0.01,-0.12 0.14,-0.12 0.13,0 0.16,0.11 0.16,0.17 0,0.08 -0.05,0.18 -0.17,0.18 -0.12,0 -0.89,0 -0.89,0l0 0.06 1.02 0c0,0 0.08,-0.15 0.25,-0.18 0,0 -0.02,0.14 -0.09,0.2l0.09 0c0,0 0.07,-0.14 0.22,-0.15 0,0 -0.01,0.11 -0.07,0.14 0,0 0.24,-0.01 0.26,0.06z"/>
  <path class="fil1" d="M3.77 7.9c0.02,0.07 0.25,0.06 0.25,0.06 -0.05,0.03 -0.06,0.13 -0.06,0.13 0.15,0 0.22,-0.14 0.22,-0.14l0.09 0c-0.07,0.05 -0.1,0.2 -0.1,0.2 0.18,-0.03 0.26,-0.18 0.26,-0.18l1.02 0 0 0.06c0,0 -0.77,0 -0.89,0 -0.13,0 -0.17,0.1 -0.17,0.18 0,0.05 0.03,0.17 0.16,0.17 0.13,0 0.14,-0.1 0.14,-0.12 0,-0.02 0,-0.09 -0.08,-0.09 -0.08,0 -0.07,0.1 -0.07,0.1 0,0 -0.06,0 -0.06,-0.06 0,-0.09 0.05,-0.08 0.11,-0.08 0.04,0 0.39,0 0.39,0l0.07 0.08 0.07 -0.08 0.43 0 0 -0.15 0.07 0 0.08 0.06 0.11 -0.14 -0.11 -0.14 -0.08 0.05 -0.07 0 0 -0.14 -0.43 0 -0.07 -0.08 -0.07 0.08c0,0 -0.35,0 -0.39,0 -0.06,0 -0.11,0 -0.11,-0.09 0,-0.06 0.06,-0.05 0.06,-0.05 0,0 -0.01,0.09 0.07,0.09 0.08,0 0.08,-0.06 0.08,-0.08 0,-0.02 -0.01,-0.12 -0.14,-0.12 -0.13,0 -0.16,0.11 -0.16,0.17 0,0.08 0.04,0.18 0.17,0.18 0.12,0 0.89,0 0.89,0l0 0.06 -1.02 0c0,0 -0.08,-0.15 -0.26,-0.18 0,0 0.03,0.14 0.1,0.2l-0.09 0c0,0 -0.07,-0.14 -0.22,-0.15 0,0 0.01,0.11 0.06,0.14 0,0 -0.23,-0.01 -0.25,0.06z"/>
  <g id="_2172500366480">
   <polygon class="fil2" points="19.76,4.55 19.79,5.18 20.42,5.21 19.79,5.24 19.76,5.87 19.73,5.24 19.1,5.21 19.72,5.18 "/>
   <polygon class="fil2" points="20.03,4.94 19.78,5.21 20.03,5.48 19.76,5.24 19.49,5.48 19.73,5.21 19.49,4.94 19.76,5.18 "/>
  </g>
  <g id="_2172500385008">
   <polygon class="fil2" points="0.66,0 0.69,0.63 1.32,0.66 0.69,0.69 0.66,1.32 0.63,0.69 0,0.66 0.63,0.63 "/>
   <polygon class="fil2" points="0.93,0.39 0.69,0.66 0.93,0.93 0.66,0.69 0.39,0.93 0.63,0.66 0.39,0.39 0.66,0.63 "/>
  </g>
  <g id="_2172500386256">
   <polygon class="fil2" points="13.65,6.84 13.68,7.47 14.31,7.5 13.68,7.53 13.65,8.16 13.62,7.54 12.99,7.5 13.62,7.47 "/>
   <polygon class="fil2" points="13.92,7.23 13.68,7.5 13.92,7.77 13.65,7.53 13.38,7.77 13.62,7.5 13.38,7.23 13.65,7.48 "/>
  </g>
 </g>
</svg>
