<?xml version="1.0" encoding="UTF-8"?>
<!DOCTYPE svg PUBLIC "-//W3C//DTD SVG 1.0//EN" "http://www.w3.org/TR/2001/REC-SVG-20010904/DTD/svg10.dtd">
<!-- Creator: CorelDRAW -->
<svg xmlns="http://www.w3.org/2000/svg" xml:space="preserve" width="522px" height="500px" version="1.0" style="shape-rendering:geometricPrecision; text-rendering:geometricPrecision; image-rendering:optimizeQuality; fill-rule:evenodd; clip-rule:evenodd"
viewBox="0 0 148.55 142.26"
 xmlns:xlink="http://www.w3.org/1999/xlink"
 xmlns:xodm="http://www.corel.com/coreldraw/odm/2003">
 <defs>
  <style type="text/css">
   <![CDATA[
    .fil0 {fill:#FEFEFE;fill-rule:nonzero}
    .fil1 {fill:url(#id0);fill-rule:nonzero}
    .fil2 {fill:url(#id1);fill-rule:nonzero}
   ]]>
  </style>
  <linearGradient id="id0" gradientUnits="userSpaceOnUse" x1="-163.23" y1="-3.27" x2="378.74" y2="182.93">
   <stop offset="0" style="stop-opacity:1; stop-color:#5D4434"/>
   <stop offset="0.0313725" style="stop-opacity:1; stop-color:#895837"/>
   <stop offset="0.290196" style="stop-opacity:1; stop-color:#F7E78E"/>
   <stop offset="0.329412" style="stop-opacity:1; stop-color:#F7E88C"/>
   <stop offset="0.45098" style="stop-opacity:1; stop-color:#B58648"/>
   <stop offset="0.501961" style="stop-opacity:1; stop-color:#CB9E56"/>
   <stop offset="0.611765" style="stop-opacity:1; stop-color:#E7BB6A"/>
   <stop offset="0.760784" style="stop-opacity:1; stop-color:#B38149"/>
   <stop offset="0.858824" style="stop-opacity:1; stop-color:#895837"/>
   <stop offset="1" style="stop-opacity:1; stop-color:#3B322D"/>
  </linearGradient>
  <linearGradient id="id1" gradientUnits="userSpaceOnUse" xlink:href="#id0" x1="312.61" y1="-4.24" x2="-231.26" y2="184.4">
  </linearGradient>
 </defs>
 <g id="Capa_x0020_1">
  <metadata id="CorelCorpID_0Corel-Layer"/>
  <path class="fil0" d="M53.83 53.17c-0.11,0.12 -0.22,0.2 -0.24,0.29 -0.03,0.19 -0.05,0.4 -0.02,0.6 0.09,0.54 0.19,1.08 0.32,1.62 0.06,0.21 0.15,0.47 0.32,0.59 0.5,0.36 0.9,0.85 1.53,1.04 0.38,0.11 0.7,0.38 1.05,0.59 0.12,0.07 0.22,0.15 0.34,0.02 0.14,-0.14 0.05,-0.26 -0.05,-0.37 -0.06,-0.07 -0.13,-0.12 -0.19,-0.18 -0.3,-0.25 -0.5,-0.56 -0.65,-0.91 -0.16,-0.35 -0.37,-0.69 -0.59,-1.01 -0.41,-0.61 -0.82,-1.22 -1.26,-1.82 -0.13,-0.17 -0.34,-0.29 -0.56,-0.46zm-50.96 20.07c0.05,-0.18 0.1,-0.36 0.14,-0.54 0.07,-0.26 0.12,-0.54 0.22,-0.79 0.28,-0.67 0.59,-1.33 0.88,-1.99 0.04,-0.09 0.09,-0.18 0.18,-0.35 0.07,0.23 0.08,0.4 0.16,0.53 0.27,0.43 0.2,0.85 0.05,1.29 -0.12,0.35 -0.05,0.65 0.18,0.97 0.99,1.4 2.04,2.75 3.23,3.99 0.17,0.17 0.34,0.24 0.56,0.27 0.33,0.05 0.65,0.16 0.96,0.28 0.64,0.23 1.26,0.51 1.91,0.74 0.42,0.14 0.6,0.52 0.91,0.79 0.33,0.29 0.64,0.62 0.98,0.91 0.18,0.16 0.33,0.32 0.36,0.57 0.02,0.11 0.04,0.23 0.08,0.34 0.12,0.28 0.03,0.47 -0.18,0.69 -1.52,1.62 -3.21,3.07 -4.88,4.53 -0.39,0.35 -0.75,0.73 -1.11,1.11 -0.08,0.09 -0.14,0.23 -0.13,0.35 0.03,0.62 0.08,1.24 0.14,1.86 0.06,0.72 0.14,1.44 0.22,2.16 0.15,1.43 0.31,2.86 0.46,4.28 0.02,0.21 0.04,0.41 0.05,0.61 0.04,0.74 0.03,1.48 0.12,2.22 0.1,0.9 0.26,1.81 0.41,2.71 0.34,1.96 0.68,3.92 1.01,5.88 0.06,0.34 0.06,0.69 0.09,1.04 0.02,0.42 0.04,0.84 0.08,1.26 0.03,0.36 -0.08,0.68 -0.26,0.99 -0.44,0.78 -0.44,0.8 0.18,1.55 0.55,-0.29 2.76,-2.39 3.06,-2.94 0.16,0.13 0.33,0.22 0.45,0.37 0.46,0.52 0.89,1.07 1.35,1.59 0.35,0.41 0.51,0.91 0.73,1.38 0.08,0.17 0.14,0.36 0.22,0.53 0.34,0.68 0.56,1.38 0.68,2.14 0.27,1.59 0.56,3.17 0.92,4.74 0.21,0.96 0.54,1.9 0.85,2.84 0.1,0.29 0.31,0.55 0.47,0.83 0.05,0.09 0.1,0.19 0.1,0.36 -0.09,-0.05 -0.19,-0.09 -0.27,-0.15 -0.38,-0.33 -0.78,-0.65 -1.15,-1 -1.13,-1.08 -2.25,-2.19 -3.39,-3.26 -0.72,-0.68 -1.46,-1.33 -2.2,-1.99 -0.29,-0.27 -0.5,-0.6 -0.59,-0.99 -0.16,-0.72 -0.67,-1.21 -1.35,-1.3 -0.17,-0.02 -0.35,-0.01 -0.51,0.04 -0.49,0.14 -0.98,0.29 -1.44,0.49 -0.33,0.15 -0.62,0.37 -0.92,0.58 -0.39,0.28 -0.75,0.59 -1.14,0.86 -0.35,0.25 -0.69,0.49 -1.07,0.68 -0.4,0.19 -0.86,0.15 -1.27,0.01 -0.23,-0.07 -0.29,-0.36 -0.32,-0.61 -0.05,-0.4 -0.1,-0.8 -0.15,-1.2 -0.01,-0.09 -0.04,-0.17 -0.13,-0.25 -0.01,0.14 -0.02,0.29 -0.02,0.43 -0.01,1.18 -0.01,2.36 -0.01,3.54l0.1 -45.97zm40.54 -31.79c0.05,-0.12 0.08,-0.24 0.12,-0.25 0.41,-0.03 0.82,-0.09 1.28,0.07 -0.48,0.24 -0.92,0.17 -1.4,0.18zm-0.79 -2.17c-0.1,-0.28 -0.16,-0.49 -0.25,-0.68 -0.11,-0.24 -0.12,-0.24 -0.04,-0.58 0.41,0.19 0.82,0.37 1.21,0.57 0.08,0.04 0.19,0.16 0.18,0.22 -0.04,0.17 0.06,0.18 0.17,0.22 0.07,0.02 0.12,0.1 0.25,0.22 -0.58,0.07 -1.09,0.05 -1.52,0.03zm-7.33 16.13c0.05,0.33 0.1,0.65 0.15,0.98 0.01,0.07 -0.02,0.16 0.01,0.21 0.3,0.52 -0.16,0.79 -0.38,1.13 -0.03,0.05 -0.17,0.12 -0.2,0.09 -0.08,-0.04 -0.14,-0.14 -0.15,-0.23 -0.01,-0.14 0.02,-0.28 0.04,-0.43 0.09,-0.52 0.19,-1.05 0.29,-1.58 0.01,-0.06 0.08,-0.12 0.12,-0.19 0.04,0.01 0.08,0.02 0.12,0.02zm1.49 83.07c-0.57,0.07 -1.03,0.02 -1.42,-0.41 -0.53,-0.58 -1.11,-1.11 -1.67,-1.66 -0.13,-0.13 -0.23,-0.28 -0.36,-0.44 0.24,-0.15 0.4,-0.03 0.55,0.05 0.51,0.28 1.01,0.57 1.52,0.85 0.23,0.12 0.47,0.22 0.71,0.32 0.18,0.07 0.32,0.15 0.37,0.37 0.07,0.3 0.19,0.58 0.3,0.92zm43.46 -52.7c0.21,0.24 0.27,0.48 0.24,0.76 -0.03,0.31 -0.01,0.61 0.13,0.93 0.1,0.24 0.09,0.57 0.03,0.85 -0.2,0.93 -0.43,1.86 -0.67,2.78 -0.1,0.41 -0.21,0.82 -0.35,1.21 -0.19,0.54 -0.16,1.08 -0.16,1.64 0,0.14 0,0.29 -0.03,0.43 -0.05,0.23 -0.23,0.37 -0.46,0.4 -0.26,0.02 -0.47,-0.08 -0.55,-0.33 -0.14,-0.44 -0.24,-0.92 -0.11,-1.37 0.14,-0.48 0.15,-0.97 0.19,-1.46 0.02,-0.21 0.05,-0.43 0.12,-0.63 0.16,-0.51 0.34,-1.02 0.54,-1.52 0.16,-0.39 0.24,-0.8 0.23,-1.23 -0.01,-0.47 0,-0.95 0,-1.43 0,-0.15 0.02,-0.29 0.05,-0.43 0.06,-0.32 0.22,-0.53 0.58,-0.54 0.07,0 0.14,-0.03 0.22,-0.06zm4.75 52.44c0.01,0.24 -0.11,0.28 -0.27,0.29 -0.61,0.02 -1.22,0.06 -1.83,0.06 -2.25,0.01 -4.51,0.01 -6.76,0 -0.45,0 -0.9,-0.01 -1.35,-0.06 -0.42,-0.04 -0.84,-0.15 -1.25,-0.22 -0.15,-0.47 -0.13,-0.53 0.31,-0.62 1.03,-0.23 2.07,-0.46 3.11,-0.65 0.24,-0.05 0.52,-0.01 0.77,0.05 0.72,0.18 1.45,0.27 2.19,0.29 1.04,0.02 2.07,0.16 3.09,0.38 0.67,0.14 1.35,0.19 1.99,0.48zm-46.7 -67.14c-0.04,0.44 -0.07,0.86 -0.11,1.28 -0.02,0.18 -0.1,0.33 -0.29,0.4 -0.17,0.06 -0.31,-0.03 -0.42,-0.15 -0.42,-0.43 -0.9,-0.79 -1.43,-1.05 -0.67,-0.32 -0.9,-0.92 -0.99,-1.58 -0.05,-0.39 -0.17,-0.67 -0.47,-0.93 -0.35,-0.28 -0.43,-0.74 -0.59,-1.14 -0.07,-0.17 -0.13,-0.37 -0.25,-0.49 -0.32,-0.32 -0.42,-0.71 -0.43,-1.15 -0.01,-0.39 -0.08,-0.77 -0.09,-1.16 -0.01,-0.11 0.04,-0.27 0.12,-0.34 0.13,-0.11 0.3,-0.07 0.44,0.05 0.3,0.24 0.62,0.47 0.92,0.72 0.58,0.51 1.2,0.96 1.66,1.6 0.38,0.53 0.76,1.05 1.14,1.58 0.14,0.19 0.28,0.38 0.37,0.59 0.27,0.56 0.4,1.16 0.42,1.77zm18.49 62.88c-0.07,0.22 -0.2,0.27 -0.4,0.26 -0.44,-0.03 -0.89,-0.01 -1.33,-0.05 -0.35,-0.04 -0.68,-0.16 -0.97,-0.43 0.31,-0.19 0.6,-0.38 0.89,-0.55 0.08,-0.05 0.19,-0.08 0.29,-0.07 0.99,0.09 1.99,0.2 2.99,0.29 1.49,0.12 2.95,0.43 4.4,0.76 0.44,0.1 0.9,0.11 1.34,0.1 1.15,-0.02 2.28,0.14 3.42,0.33 0.95,0.16 1.91,0.3 2.88,0.39 1.04,0.1 2,0.44 2.97,0.78 0.08,0.02 0.15,0.07 0.31,0.16 -0.67,0.07 -1.24,0.15 -1.81,0.19 -1.16,0.08 -2.32,0.09 -3.47,0.23 -1,0.12 -1.88,-0.28 -2.8,-0.48 -0.89,-0.18 -1.63,-0.69 -2.4,-1.1 -0.27,-0.14 -0.52,-0.17 -0.79,-0.07 -0.43,0.14 -0.86,0.27 -1.28,0.43 -0.19,0.07 -0.37,0.11 -0.58,0.01 -0.14,-0.07 -0.3,-0.1 -0.46,-0.12 -0.2,-0.04 -0.46,0.04 -0.44,-0.31 0,-0.04 -0.13,-0.1 -0.21,-0.12 -0.83,-0.21 -1.66,-0.41 -2.55,-0.63zm-20.98 -88.36c0.4,-0.89 0.8,-1.75 1.18,-2.59 0.78,0.46 1.57,0.95 2.39,1.36 0.41,0.21 0.88,0.28 1.33,0.38 0.88,0.19 1.76,0.37 2.7,0.56 -0.01,0.12 -0.01,0.26 -0.04,0.4 -0.2,0.97 -0.57,1.88 -1.08,2.73 -0.37,0.62 -0.69,1.28 -1.06,1.97 -0.24,0.02 -0.39,0.25 -0.54,0.49 -0.15,0.23 -0.29,0.47 -0.48,0.66 -0.22,0.23 -0.37,0.22 -0.62,0.04 -0.07,-0.05 -0.12,-0.15 -0.2,-0.17 -0.58,-0.2 -0.86,-0.68 -1.15,-1.17 -0.32,-0.54 -0.7,-1.04 -1,-1.58 -0.32,-0.59 -0.58,-1.21 -0.86,-1.81 -0.2,-0.42 -0.38,-0.85 -0.57,-1.27zm25.98 25.33c0.24,0.06 0.3,0.22 0.31,0.42 0.06,0.8 0.34,1.53 0.73,2.22 0.07,0.13 0.14,0.25 0.2,0.38 0.29,0.68 0.55,1.37 0.87,2.04 0.21,0.41 0.47,0.8 0.75,1.17 0.49,0.65 1.05,1.25 1.52,1.91 0.37,0.53 0.94,0.59 1.47,0.74 0.08,0.03 0.21,-0.04 0.31,-0.1 0.42,-0.25 0.74,-0.11 0.87,0.38 0.17,0.66 0.37,1.31 0.55,1.96 0.03,0.09 0.06,0.17 0.08,0.25 0.11,0.47 0.28,0.9 0.5,1.34 0.5,0.99 0.96,2.01 1.25,3.1 0.06,0.24 0.15,0.47 0.24,0.7 0.17,0.47 0.27,0.95 0.25,1.45 -0.03,0.55 0.06,1.07 0.3,1.57 0.15,0.31 0.09,0.54 -0.12,0.7 -0.2,0.15 -0.4,0.15 -0.69,-0.03 -0.09,-0.06 -0.51,-0.54 -0.57,-0.66 -0.02,-0.05 -0.05,-0.1 -0.09,-0.14 -0.75,-0.91 -1.37,-1.91 -1.95,-2.93 -0.4,-0.72 -0.78,-1.46 -1.21,-2.17 -0.58,-0.97 -1.21,-1.91 -1.81,-2.87 -0.32,-0.52 -0.63,-1.04 -0.96,-1.56 -0.1,-0.15 -0.23,-0.3 -0.37,-0.4 -0.18,-0.13 -0.29,-0.27 -0.32,-0.49 -0.02,-0.16 -0.07,-0.32 -0.15,-0.44 -0.28,-0.45 -0.58,-0.88 -0.87,-1.31 -0.33,-0.51 -0.68,-1.01 -0.99,-1.53 -0.09,-0.14 -0.12,-0.33 -0.12,-0.5 -0.02,-0.51 0,-1.02 -0.02,-1.53 -0.01,-0.21 -0.07,-0.42 -0.09,-0.63 -0.03,-0.34 0.11,-0.7 -0.13,-1.02 0.05,-0.55 0.09,-1.1 0.14,-1.65 0.02,-0.12 0.08,-0.24 0.12,-0.37zm-18.89 31.82c-0.05,-0.34 -0.13,-0.67 -0.15,-1.01 -0.04,-0.69 -0.21,-1.34 -0.41,-1.87 0.05,-0.34 0.13,-0.57 0.11,-0.8 -0.17,-1.54 -0.33,-3.09 -0.55,-4.62 -0.1,-0.73 -0.3,-1.46 -0.52,-2.16 -0.22,-0.71 -0.15,-1.41 -0.12,-2.12 0.05,-0.97 0.1,-1.94 0.16,-2.91 0.03,-0.57 0.09,-1.14 0.14,-1.72 0.07,-0.73 0.15,-1.47 0.19,-2.2 0.02,-0.34 0.13,-0.61 0.37,-0.85 0.53,-0.58 1.04,-1.17 1.56,-1.76 0.06,-0.06 0.11,-0.13 0.17,-0.19 0.23,-0.23 0.33,-0.23 0.54,0 0.2,0.2 0.41,0.41 0.6,0.62 0.08,0.08 0.14,0.19 0.18,0.29 0.16,0.42 0.33,0.84 0.47,1.26 0.28,0.88 0.68,1.7 1.11,2.51 0.22,0.41 0.42,0.83 0.6,1.26 0.14,0.33 0.18,0.68 0.07,1.06 -0.37,1.22 -0.79,2.43 -0.97,3.69 -0.21,1.53 -0.84,2.93 -1.32,4.37 -0.21,0.6 -0.43,1.2 -0.66,1.8 -0.34,0.87 -0.44,1.8 -0.6,2.71 -0.14,0.84 -0.42,1.63 -0.68,2.43 -0.03,0.09 -0.12,0.16 -0.19,0.24 -0.03,-0.01 -0.07,-0.02 -0.1,-0.03zm-7.96 31.93c0.05,-0.35 0.29,-0.48 0.47,-0.63 0.58,-0.48 1.17,-0.94 1.77,-1.4 0.13,-0.11 0.29,-0.18 0.45,-0.25 0.91,-0.39 1.82,-0.78 2.72,-1.17 0.15,-0.06 0.29,-0.16 0.43,-0.28 -0.63,-0.11 -1.24,-0.18 -1.86,-0.11 -0.67,0.08 -1.35,0.12 -2.02,0.24 -1.01,0.18 -2.02,0.39 -3.02,0.65 -0.36,0.09 -0.69,0.35 -1.04,0.53 -0.45,0.26 -0.91,0.51 -1.36,0.78 -0.24,0.14 -0.45,0.31 -0.68,0.47 -0.16,0.11 -0.33,0.22 -0.52,0.34 -0.4,-0.34 -0.8,-0.66 -1.17,-1 -1.37,-1.26 -2.75,-2.51 -4.1,-3.79 -0.7,-0.67 -1.37,-1.38 -2.04,-2.08 -0.13,-0.14 -0.25,-0.3 -0.31,-0.47 -0.85,-2.66 -1.99,-5.21 -3.08,-7.77 -0.41,-0.96 -0.68,-1.97 -1.03,-2.96 -0.68,-1.93 -1.34,-3.87 -2.06,-5.78 -0.44,-1.17 -0.99,-2.29 -1.45,-3.45 -0.41,-1.01 -0.77,-2.04 -1.14,-3.06 -0.42,-1.15 -0.82,-2.3 -1.24,-3.45 -0.31,-0.82 -0.46,-1.67 -0.5,-2.55 -0.02,-0.5 -0.06,-1.01 -0.06,-1.52 0,-0.3 0.05,-0.59 0.08,-0.96 -0.28,-0.01 -0.53,-0.01 -0.77,-0.02 -0.35,-0.01 -0.37,-0.02 -0.46,-0.33 -0.28,-0.91 -0.59,-1.82 -0.83,-2.75 -0.14,-0.51 -0.2,-1.05 -0.28,-1.58 -0.05,-0.36 -0.07,-0.72 -0.13,-1.08 -0.06,-0.32 -0.14,-0.64 -0.24,-0.96 -0.13,-0.4 -0.28,-0.8 -0.44,-1.18 -0.13,-0.3 -0.08,-0.53 0.14,-0.75 0.44,-0.44 0.85,-0.92 1.3,-1.34 0.79,-0.74 1.58,-1.46 2.39,-2.17 0.51,-0.45 1.03,-0.89 1.57,-1.31 0.34,-0.27 0.71,-0.51 1.08,-0.73 0.47,-0.26 0.95,-0.5 1.43,-0.74 0.12,-0.05 0.27,-0.06 0.41,-0.09 0.02,0.15 0.07,0.31 0.05,0.45 -0.08,0.56 -0.18,1.12 -0.29,1.67 -0.13,0.68 -0.15,1.35 -0.08,2.04 0.14,1.35 0.28,2.71 0.35,4.07 0.05,0.7 -0.03,1.42 -0.09,2.13 -0.05,0.69 -0.15,1.38 -0.23,2.07 -0.01,0.17 0,0.35 0,0.59 0.3,-0.12 0.56,-0.21 0.8,-0.34 0.08,-0.04 0.14,-0.17 0.16,-0.28 0.25,-1.28 0.48,-2.56 0.73,-3.84 0.09,-0.46 0.2,-0.91 0.31,-1.36 0.08,-0.36 0.12,-0.71 0.03,-1.08 -0.22,-0.83 -0.11,-1.66 0.01,-2.49 0.11,-0.72 0.15,-1.44 0.22,-2.16 0.04,-0.38 0.1,-0.75 0.14,-1.12 0.02,-0.18 0.12,-0.29 0.29,-0.35 0.43,-0.17 0.86,-0.34 1.3,-0.49 0.1,-0.04 0.23,-0.03 0.33,-0.02 1.72,0.29 3.42,0.67 5.07,1.27 0.29,0.11 0.56,0.08 0.85,0.03 0.67,-0.1 1.34,-0.2 2.01,-0.35 0.24,-0.05 0.46,-0.22 0.67,-0.37 0.06,-0.05 0.08,-0.21 0.08,-0.31 -0.04,-0.58 -0.08,-1.16 -0.13,-1.76 0.51,-0.37 1.06,-0.69 1.64,-0.96 0.56,-0.26 1.12,-0.52 1.7,-0.75 0.22,-0.09 0.49,-0.12 0.72,-0.09 0.69,0.11 1.36,0.11 2.01,-0.19 0.03,-0.01 0.08,0 0.17,0 -0.02,0.11 -0.02,0.2 -0.04,0.29 -0.07,0.2 -0.14,0.41 -0.24,0.6 -0.3,0.61 -0.45,1.25 -0.5,1.92 0,0.1 -0.01,0.21 -0.06,0.3 -0.43,0.77 -0.46,1.63 -0.46,2.49 0,0.52 0.05,1.04 0.06,1.56 0.01,0.25 -0.09,0.48 -0.26,0.67 -0.62,0.69 -1.23,1.4 -1.87,2.07 -0.41,0.43 -0.85,0.83 -1.3,1.22 -0.21,0.18 -0.3,0.37 -0.29,0.64 0.03,0.8 -0.12,1.59 -0.28,2.37 -0.23,1.18 -0.64,2.31 -1.1,3.43 -0.34,0.8 -0.61,1.64 -1,2.41 -0.6,1.18 -0.98,2.45 -1.44,3.69 -0.22,0.6 -0.3,1.24 -0.5,1.85 -0.56,1.66 -1.13,3.32 -1.73,4.97 -0.12,0.36 -0.11,0.63 0.1,0.94 0.56,0.81 1.08,1.65 1.65,2.46 0.82,1.19 1.54,2.43 2.2,3.71 0.35,0.66 0.58,1.39 0.86,2.09 1.16,2.91 1.97,5.92 2.71,8.96 0.15,0.63 0.28,1.28 0.48,1.9 0.34,1.11 0.41,2.26 0.49,3.4 0,0.07 0,0.15 0.01,0.22 0.04,0.29 0.17,0.42 0.46,0.39 0.69,-0.07 1.38,-0.14 2.08,-0.21 0.11,-0.01 0.23,-0.03 0.34,-0.04 0.85,-0.03 1.69,-0.06 2.53,-0.08 0.26,0 0.52,0.04 0.78,0.09 0.61,0.14 1.22,0.28 1.82,0.45 0.41,0.11 0.82,0.17 1.24,0.15 0.58,-0.03 1.16,-0.08 1.74,-0.07 0.42,0 0.84,0.06 1.26,0.11 0.45,0.05 0.91,0.11 1.4,0.17 0.11,-0.36 0.21,-0.69 0.29,-0.95 -0.46,-0.75 -0.87,-1.47 -1.32,-2.15 -0.18,-0.27 -0.44,-0.5 -0.69,-0.72 -0.45,-0.4 -0.79,-0.88 -1.07,-1.41 -0.17,-0.3 -0.14,-0.62 -0.19,-0.93 -0.08,-0.42 -0.13,-0.85 -0.19,-1.28 -0.07,-0.51 -0.14,-1.01 -0.19,-1.51 -0.04,-0.33 0.02,-0.67 -0.04,-1 -0.12,-0.6 -0.24,-1.2 -0.65,-1.72 -0.43,-0.53 -0.89,-1.03 -1.39,-1.49 -0.19,-0.18 -0.43,-0.3 -0.64,-0.46 -0.97,-0.73 -1.94,-1.46 -2.92,-2.19 -0.45,-0.34 -0.91,-0.67 -1.36,-1.01 -0.25,-0.19 -0.43,-0.41 -0.52,-0.73 -0.38,-1.26 -0.78,-2.52 -1.19,-3.77 -0.07,-0.23 -0.19,-0.45 -0.34,-0.64 -0.27,-0.35 -0.58,-0.68 -0.91,-1.07 0.2,-0.17 0.38,-0.34 0.58,-0.5 0.14,-0.12 0.23,-0.24 0.24,-0.44 0.02,-0.75 0.08,-1.51 0.08,-2.26 -0.01,-1.05 -0.06,-2.09 -0.1,-3.14 -0.02,-0.4 0.02,-0.77 0.22,-1.13 0.27,-0.49 0.51,-0.98 0.74,-1.48 0.09,-0.18 0.14,-0.38 0.17,-0.58 0.02,-0.18 0.09,-0.28 0.25,-0.29 0.3,-0.01 0.61,0 0.87,0 0.07,0.63 0.12,1.2 0.18,1.77 0.01,0.08 -0.01,0.18 0.03,0.22 0.38,0.39 0.32,1.04 0.8,1.36 0.03,0.03 0.06,0.07 0.07,0.11 0.12,0.44 0.36,0.79 0.76,1.02 0.04,0.03 0.08,0.1 0.08,0.15 0.08,0.49 0.47,0.78 0.73,1.16 0.04,0.07 0.14,0.1 0.22,0.13 0.11,0.04 0.22,0.06 0.33,0.09 0.6,0.17 0.72,0.13 1.06,-0.39 0.11,-0.16 0.19,-0.33 0.29,-0.49 0.08,-0.12 0.17,-0.23 0.29,-0.39 0.11,0.26 0.05,0.45 0.01,0.64 -0.23,1.15 -0.45,2.31 -0.71,3.45 -0.12,0.55 -0.11,1.1 -0.1,1.65 0.02,1.45 0.4,2.84 0.79,4.22 0.09,0.31 0.37,0.58 0.59,0.84 0.56,0.65 1.14,1.28 1.72,1.91 0.08,0.09 0.16,0.17 0.26,0.23 1.41,0.81 2.83,1.59 4.37,2.14 0.17,0.06 0.32,0.16 0.48,0.21 0.49,0.16 0.86,0.47 1.18,0.85 1.18,1.39 2.46,2.68 3.8,3.91 0.2,0.19 0.36,0.42 0.51,0.65 0.4,0.62 0.76,1.27 1.18,1.88 0.23,0.32 0.22,0.6 0.08,0.93 -0.23,0.5 -0.47,1 -0.69,1.5 -0.46,1.1 -0.91,2.2 -1.37,3.3 -0.08,0.18 -0.06,0.33 0.01,0.5 0.09,0.2 0.17,0.42 0.26,0.66 -0.39,0.13 -0.75,0.06 -1.1,0.06 -0.28,0.01 -0.55,-0.04 -0.83,-0.04 -1.07,-0.01 -2.15,0.02 -3.23,-0.03 -1.14,-0.06 -2.27,-0.2 -3.41,-0.31 -1.15,-0.11 -2.29,-0.17 -3.42,0.1 -0.23,0.05 -0.46,0.06 -0.69,0.09 -0.87,0.1 -1.63,0.5 -2.43,0.79 -1.32,0.5 -2.64,1 -3.95,1.5 -0.07,0.02 -0.14,0.03 -0.25,0.05zm24.75 -85.48c-0.18,-0.58 -0.75,-0.7 -1.08,-1.15 0.21,0 0.37,0 0.54,0 0.49,0.01 0.52,-0.01 0.66,-0.5 0.01,-0.04 0.01,-0.08 0.02,-0.14 -0.3,-0.32 -0.8,-0.21 -1.16,-0.53 0.52,-0.15 0.97,-0.34 1.5,-0.19 0.5,0.14 1.01,0.23 1.53,0.34 0.33,0.07 0.33,0.06 0.5,-0.24 0.12,-0.2 0.26,-0.39 0.37,-0.6 0.17,-0.28 0.13,-0.42 -0.18,-0.53 -0.37,-0.12 -0.75,-0.23 -1.13,-0.31 -0.71,-0.14 -1.17,-0.66 -1.67,-1.12 -0.03,-0.03 -0.05,-0.07 -0.07,-0.11 -0.01,-0.02 0,-0.05 0,-0.11 0.06,0 0.13,0 0.19,0 0.97,0.11 1.83,0.55 2.7,0.94 0.36,0.16 0.71,0.34 1.07,0.49 0.12,0.05 0.29,0.06 0.41,0.02 0.28,-0.08 0.6,-0.06 0.91,-0.3 -0.16,-0.1 -0.27,-0.17 -0.38,-0.24 -1.08,-0.62 -2.23,-1.06 -3.36,-1.55 -0.33,-0.14 -0.33,-0.15 -0.42,-0.55 0.16,-0.1 0.32,-0.04 0.49,-0.01 0.94,0.18 0.78,0.28 1.31,-0.5 0.26,-0.38 0.57,-0.52 1,-0.54 0.54,-0.03 1.07,-0.11 1.6,-0.18 0.19,-0.03 0.38,-0.11 0.62,-0.19 -0.15,-0.36 -0.27,-0.69 -0.42,-0.99 -0.05,-0.1 -0.2,-0.17 -0.31,-0.2 -0.8,-0.17 -1.59,-0.34 -2.41,-0.32 -0.31,0 -0.61,-0.02 -0.92,0 -1.21,0.08 -2.39,-0.19 -3.59,-0.3 -0.43,-0.04 -0.87,0 -1.29,0.06 -0.2,0.02 -0.34,0 -0.49,-0.1 -0.24,-0.16 -0.49,-0.3 -0.74,-0.46 -0.54,-0.35 -0.58,-0.44 -0.49,-1.05 -0.47,-0.22 -0.47,-0.22 -0.5,-0.81 -0.16,-0.09 -0.34,-0.18 -0.57,-0.29 -0.13,0.77 0.01,1.52 -0.33,2.21 -0.27,-0.22 -0.47,-0.47 -0.62,-0.78 -0.11,-0.21 -0.28,-0.41 -0.45,-0.58 -0.2,-0.18 -0.41,-0.17 -0.56,0.05 -0.25,0.35 -0.55,0.55 -1.02,0.45 -0.19,0.45 -0.37,0.89 -0.56,1.36 -0.39,-0.09 -0.72,-0.28 -0.96,-0.6 -0.25,-0.32 -0.45,-0.67 -0.69,-1 -0.2,-0.27 -0.41,-0.53 -0.64,-0.77 -0.1,-0.1 -0.25,-0.19 -0.38,-0.19 -0.23,-0.02 -0.41,-0.12 -0.59,-0.24 -0.15,-0.09 -0.31,-0.15 -0.47,-0.23 -0.56,-0.28 -1.12,-0.55 -1.67,-0.84 -0.12,-0.06 -0.2,-0.19 -0.3,-0.29 -0.15,-0.14 -0.27,-0.33 -0.44,-0.42 -0.62,-0.31 -1.13,-0.75 -1.65,-1.2 -0.21,-0.18 -0.41,-0.4 -0.6,-0.61 -0.07,-0.07 -0.12,-0.19 -0.11,-0.27 0.07,-0.47 0.08,-0.96 0.39,-1.39 0.28,0.09 0.46,0.3 0.67,0.47 0.08,0.08 0.16,0.17 0.25,0.25 0.15,0.13 0.3,0.15 0.45,-0.03 0.03,-0.04 0.09,-0.08 0.11,-0.13 0.33,-0.61 0.94,-0.93 1.44,-1.37 0.14,-0.13 0.34,-0.2 0.53,-0.26 0.32,-0.1 0.64,-0.22 0.97,-0.24 0.5,-0.04 1.01,0.03 1.49,0.19 0.3,0.1 0.61,0.18 0.93,0.28 0.11,-0.21 0.05,-0.35 -0.07,-0.52 -0.21,-0.3 -0.38,-0.62 -0.57,-0.93 -0.16,-0.26 -0.32,-0.51 -0.47,-0.77 -0.33,-0.57 -0.65,-1.13 -0.97,-1.7 -0.17,-0.32 -0.31,-0.66 -0.47,-0.98 -0.16,-0.34 -0.13,-0.55 0.14,-0.82 0.04,-0.04 0.09,-0.07 0.13,-0.11 0.42,-0.43 0.45,-1.07 0.02,-1.48 -0.45,-0.44 -0.74,-0.97 -0.97,-1.53 -0.2,-0.47 -0.19,-0.94 -0.02,-1.4 0.53,-1.4 1.06,-2.8 1.63,-4.18 0.22,-0.52 0.51,-1.01 0.81,-1.49 0.44,-0.71 0.92,-1.4 1.39,-2.1 0.08,-0.11 0.18,-0.19 0.28,-0.27 0.44,-0.4 0.87,-0.8 1.32,-1.19 0.31,-0.26 0.64,-0.49 0.96,-0.73 0.55,-0.42 1.25,-0.62 1.74,-1.14 0.01,-0.01 0.02,-0.03 0.03,-0.03 0.64,-0.14 1.11,-0.65 1.77,-0.79 0.61,-0.14 1.19,-0.44 1.79,-0.67 0.53,-0.2 1.06,-0.45 1.61,-0.62 1.21,-0.37 2.46,-0.55 3.73,-0.54 0.92,0.01 1.83,0.01 2.75,0.02 0.09,0 0.19,-0.01 0.26,0.02 0.38,0.19 0.77,0.05 1.15,0.07 0.13,0 0.27,-0.11 0.39,-0.18 0.2,-0.1 0.37,-0.1 0.57,0.01 0.45,0.25 0.8,0.61 1.08,1.01 0.31,0.45 0.73,0.76 1.12,1.13 0.47,0.43 0.95,0.85 1.39,1.31 0.24,0.25 0.39,0.58 0.58,0.87 0.19,0.31 0.38,0.62 0.57,0.93 0.14,0.22 0.28,0.43 0.23,0.72 -0.04,0.16 0.07,0.26 0.18,0.37 0.08,0.06 0.16,0.2 0.15,0.28 -0.1,0.41 0.1,0.75 0.23,1.08 0.21,0.51 0.45,1 0.53,1.56 0.05,0.37 0.22,0.72 0.31,1.08 0.15,0.66 0.27,1.33 0.41,2 0.02,0.11 0.05,0.22 0.07,0.34 0.03,0.2 0.09,0.39 0.1,0.6 0.06,0.76 0.11,1.53 0.15,2.3 0.01,0.11 -0.01,0.23 -0.01,0.34 0,0.17 -0.03,0.36 0.02,0.52 0.18,0.63 0.16,1.26 0.02,1.89 -0.02,0.07 -0.06,0.15 -0.05,0.21 0.12,0.55 -0.04,1.1 -0.04,1.65 0,0.23 -0.01,0.47 -0.08,0.69 -0.45,1.47 -0.68,2.99 -1.06,4.47 -0.15,0.59 -0.19,1.21 -0.22,1.82 -0.02,0.79 -0.24,1.5 -0.61,2.19 -0.3,0.57 -0.56,1.15 -0.83,1.73 -0.03,0.05 -0.05,0.11 -0.04,0.16 0.02,0.23 -0.13,0.33 -0.27,0.47 -0.48,0.47 -0.96,0.95 -1.42,1.45 -0.07,0.07 -0.09,0.27 -0.04,0.35 0.05,0.08 0.22,0.13 0.33,0.12 0.15,-0.01 0.3,-0.09 0.45,-0.14 0.32,-0.12 0.64,-0.26 0.97,-0.33 0.39,-0.09 0.6,-0.26 0.68,-0.64 0.04,-0.18 0.07,-0.37 0.11,-0.55 0.1,-0.46 0.39,-0.71 0.85,-0.74 0.18,-0.01 0.38,-0.02 0.56,0.02 0.51,0.11 0.83,-0.12 1.02,-0.54 0.14,-0.32 0.38,-0.4 0.66,-0.39 0.39,0.02 0.78,0.06 1.16,0.12 0.84,0.15 1.44,0.64 1.94,1.29 0.45,0.59 0.93,1.16 1.35,1.77 0.57,0.83 1.09,1.68 1.62,2.53 0.4,0.65 0.77,1.33 1.17,1.98 0.11,0.18 0.23,0.34 0.38,0.48 0.56,0.53 1.02,1.15 1.42,1.81 0.17,0.26 0.37,0.47 0.65,0.63 0.15,0.09 0.3,0.22 0.4,0.37 1.07,1.53 2.11,3.07 3.18,4.59 0.2,0.3 0.18,0.61 0.19,0.92 0.01,0.34 0.05,0.63 0.29,0.88 0.11,0.11 0.16,0.28 0.21,0.43 0.32,0.95 0.75,1.85 1.21,2.74 0.02,0.04 0.06,0.07 0.07,0.11 0.11,0.57 0.58,0.84 0.95,1.2 0.35,0.34 0.72,0.67 1.07,1.02 0.11,0.12 0.16,0.31 0.25,0.45 0.47,0.76 0.58,1.56 0.39,2.42 -0.06,0.3 -0.06,0.61 -0.09,0.91 0,0.03 0.02,0.05 0.06,0.14 0.18,-0.12 0.36,-0.22 0.53,-0.34 0.91,-0.69 1.82,-1.39 2.74,-2.08 0.15,-0.12 0.3,-0.23 0.46,-0.33 0.26,-0.16 0.34,-0.14 0.47,0.14 0.37,0.79 0.73,1.58 1.07,2.38 0.25,0.57 0.46,1.16 0.67,1.75 0.07,0.19 0.1,0.39 0.15,0.59 0.17,0.73 0.33,1.47 0.53,2.2 0.28,0.98 0.78,1.87 1.26,2.77 0.15,0.28 0.16,0.48 -0.02,0.75 -0.66,0.99 -1.28,2.01 -1.97,2.98 -0.49,0.7 -1.06,1.34 -1.58,2.02 -0.61,0.78 -1.33,1.46 -2.06,2.13 -0.24,0.21 -0.46,0.45 -0.69,0.67 -0.36,0.33 -0.74,0.65 -1.09,1 -0.46,0.45 -0.9,0.91 -1.33,1.38 -0.26,0.27 -0.24,0.39 0.03,0.65 0.07,0.07 0.15,0.13 0.22,0.19 0.05,-0.02 0.09,-0.02 0.1,-0.04 0.12,-0.41 0.46,-0.61 0.77,-0.84 0.06,-0.04 0.13,-0.08 0.17,-0.14 0.63,-0.75 1.54,-1.13 2.31,-1.69 0.27,-0.2 0.57,-0.35 0.84,-0.55 0.15,-0.1 0.3,-0.23 0.4,-0.38 0.42,-0.61 0.81,-1.24 1.23,-1.85 0.43,-0.62 0.89,-1.22 1.33,-1.83 0.05,0.05 0.08,0.07 0.08,0.08 -0.21,0.37 -0.2,0.73 -0.03,1.12 0.12,0.26 0.18,0.55 0.28,0.82 0.03,0.11 0.09,0.22 0.17,0.3 0.11,0.11 0.28,0.08 0.31,-0.07 0.16,-0.77 0.69,-1.33 1.09,-2 -0.46,-0.27 -0.9,-0.54 -1.37,-0.82 0.07,-0.08 0.14,-0.17 0.21,-0.26 0.14,-0.17 0.31,-0.19 0.51,-0.1 0.58,0.23 0.98,0.63 1.26,1.2 0.3,0.62 0.52,1.26 0.42,2.01 -0.4,0.22 -0.71,0.63 -1.23,0.78 -0.16,0.04 -0.28,0.26 -0.42,0.4 0.11,0.2 0.21,0.36 0.3,0.52 0.08,0.15 0.18,0.24 0.35,0.29 0.18,0.05 0.33,0.17 0.51,0.27 0.06,-0.1 0.12,-0.22 0.2,-0.32 0.58,-0.87 1.73,-1.1 2.61,-0.53 0.48,0.3 1,0.53 1.45,0.87 0.5,0.37 1.02,0.76 1.36,1.26 0.36,0.52 0.63,1.13 0.73,1.8 0.06,0.46 0.19,0.9 0.28,1.36 0.09,0.47 0.15,0.94 0.25,1.41 0.16,0.7 0.23,1.43 0.53,2.1 0.15,0.33 0.21,0.69 0.32,1.04 0.34,1.08 0.88,2.07 1.46,3.05 0.17,0.3 0.31,0.62 0.48,0.92 0.29,0.55 0.61,1.09 0.9,1.64 0.16,0.32 0.3,0.66 0.43,0.99 0.31,0.78 0.59,1.57 0.91,2.35 0.22,0.54 0.47,1.06 0.74,1.57 0.23,0.47 0.5,0.92 0.76,1.37 0.06,0.11 0.12,0.23 0.2,0.34 0.51,0.73 0.55,1.47 0.07,2.24 -0.03,0.05 -0.06,0.09 -0.11,0.18 0.17,0.27 0.35,0.54 0.53,0.81 0.23,0.34 0.46,0.68 0.69,1.01 0.33,0.44 0.67,0.87 0.98,1.32 0.3,0.45 0.59,0.9 0.85,1.37 0.24,0.41 0.43,0.85 0.66,1.27 0.42,0.8 0.77,1.61 1.05,2.47 0.24,0.7 0.54,1.37 0.82,2.06 0.15,0.38 0.31,0.75 0.46,1.13 0.23,0.59 0.46,1.18 0.69,1.78 0.28,0.75 0.64,1.46 1.02,2.16 0.23,0.42 0.38,0.87 0.4,1.36 0,0.06 -0.01,0.12 0.01,0.17 0.2,0.84 0.32,1.68 0.45,2.52 0.01,0.06 0.04,0.11 0.05,0.17 0.06,0.69 0.13,1.38 0.18,2.07 0.03,0.38 0.05,0.76 0.08,1.13 0.01,0.16 0.01,0.32 0.02,0.48 0.02,0.45 0.05,0.89 0.05,1.34 0.01,0.25 -0.02,0.51 -0.04,0.76 -0.03,0.01 -0.07,0.02 -0.1,0.03 -0.24,-0.34 -0.48,-0.68 -0.73,-1.03 -0.11,0.03 -0.23,0.08 -0.36,0.11 -0.27,0.05 -0.56,0.02 -0.72,-0.21 -0.28,-0.4 -0.75,-0.52 -1.1,-0.92 -0.03,0.15 -0.05,0.24 -0.06,0.33 0,1.18 0,2.36 0.01,3.53 0.01,0.37 -0.03,0.7 -0.39,0.94 0.26,0.36 0.18,0.72 0.08,1.09 -0.13,0.47 -0.2,0.94 -0.3,1.41 -0.04,0.17 -0.09,0.33 -0.15,0.52 -0.17,-0.07 -0.3,-0.11 -0.43,-0.18 -0.57,-0.29 -1.16,-0.55 -1.7,-0.89 -0.44,-0.29 -0.83,-0.67 -1.24,-1.02 -0.05,-0.04 -0.08,-0.12 -0.1,-0.19 -0.07,-0.31 -0.15,-0.62 -0.21,-0.93 -0.12,-0.56 -0.17,-1.16 -0.38,-1.69 -0.27,-0.68 -0.26,-1.36 -0.25,-2.05 0,-0.44 0.01,-0.88 -0.01,-1.31 -0.02,-0.48 -0.3,-0.79 -0.73,-0.84 -0.43,-0.04 -0.74,0.21 -0.87,0.68 -0.03,0.09 -0.03,0.2 -0.08,0.25 -0.44,0.39 -0.45,0.96 -0.6,1.47 -0.12,0.4 -0.14,0.43 -0.56,0.44 -0.81,0.03 -1.47,-0.37 -1.81,-1.11 -0.21,-0.44 -0.4,-0.87 -0.6,-1.31 -0.02,-0.02 -0.02,-0.05 -0.04,-0.08 -0.49,-0.55 -0.53,-1.25 -0.66,-1.94 -0.13,-0.67 -0.2,-1.34 -0.2,-2.03 0,-0.11 -0.02,-0.23 -0.04,-0.34 -0.08,-0.49 -0.13,-0.98 -0.02,-1.48 0.02,-0.07 0.03,-0.14 0.03,-0.21 0.01,-0.34 -0.13,-0.6 -0.43,-0.75 -0.3,-0.16 -0.6,-0.14 -0.86,0.08 -0.23,0.2 -0.43,0.45 -0.68,0.72 -0.22,-0.25 -0.44,-0.5 -0.66,-0.74 -0.11,-0.11 -0.23,-0.23 -0.36,-0.31 -0.59,-0.37 -1.2,-0.71 -1.79,-1.08 -0.35,-0.23 -0.7,-0.49 -1.01,-0.77 -0.56,-0.49 -0.8,-1.13 -0.6,-1.85 0.11,-0.39 0.05,-0.73 -0.07,-1.09 -0.4,-1.31 -0.67,-2.64 -0.88,-3.99 -0.09,-0.63 -0.17,-1.26 -0.3,-1.88 -0.18,-0.9 -0.64,-1.66 -1.25,-2.35 -0.52,-0.6 -1.21,-0.98 -1.83,-1.46 -0.38,-0.29 -0.79,-0.54 -1.17,-0.83 -0.08,-0.06 -0.15,-0.17 -0.18,-0.28 -0.11,-0.3 -0.21,-0.6 -0.28,-0.91 -0.02,-0.12 0.04,-0.25 0.06,-0.37 0.05,-0.25 0.13,-0.51 0.15,-0.76 0.02,-0.35 -0.03,-0.69 -0.02,-1.04 0.02,-0.83 -0.37,-1.54 -0.68,-2.27 -0.21,-0.47 -0.55,-0.89 -0.79,-1.35 -0.35,-0.69 -0.72,-1.39 -0.99,-2.12 -0.33,-0.89 -0.32,-1.82 -0.05,-2.74 0.17,-0.57 0.34,-1.15 0.38,-1.74 0.03,-0.49 0.05,-1 -0.15,-1.5 -0.33,-0.82 -0.56,-1.67 -0.91,-2.48 -0.26,-0.6 -0.63,-1.14 -0.96,-1.7 -0.06,-0.1 -0.14,-0.19 -0.21,-0.28 -0.4,-0.63 -0.89,-0.85 -1.62,-0.71 -0.04,0 -0.08,0 -0.17,0 -0.07,-0.17 -0.15,-0.35 -0.23,-0.53 -0.09,-0.21 -0.23,-0.3 -0.45,-0.2 -0.2,0.09 -0.4,0.18 -0.58,0.29 -0.14,0.07 -0.28,0.16 -0.39,0.28 -0.35,0.36 -0.76,0.34 -1.19,0.22 -0.22,-0.06 -0.46,-0.09 -0.68,-0.13 -0.1,-0.02 -0.22,-0.02 -0.29,-0.07 -0.25,-0.22 -0.56,-0.22 -0.86,-0.29 -0.74,-0.19 -1.49,-0.36 -2.11,-0.84 -0.14,-0.11 -0.29,-0.21 -0.27,-0.47 0.15,0.02 0.29,0.02 0.43,0.04 0.14,0.02 0.28,0.08 0.42,0.1 0.26,0.03 0.36,-0.08 0.28,-0.33 -0.18,-0.54 -0.37,-1.08 -0.55,-1.61 -0.16,-0.48 -0.32,-0.96 -0.48,-1.45 -0.25,-0.79 -0.34,-1.61 -0.32,-2.45 0.03,-1.16 0.03,-2.32 0.06,-3.48 0.01,-0.29 0.05,-0.58 0.12,-0.87 0.05,-0.2 0.15,-0.39 0.23,-0.59 0.05,-0.11 0.13,-0.21 0.14,-0.32 0.02,-0.33 0.23,-0.54 0.45,-0.76 0.46,-0.47 0.88,-0.97 1.35,-1.43 0.43,-0.41 0.89,-0.78 1.35,-1.16 0.35,-0.28 0.4,-0.38 0.36,-0.93 -0.77,0.41 -1.39,1.01 -2.07,1.51 -0.67,0.5 -1.33,1.02 -1.99,1.53 -0.04,-0.02 -0.07,-0.04 -0.1,-0.06 0.02,-0.12 0.01,-0.26 0.06,-0.37 0.28,-0.57 0.55,-1.15 0.86,-1.71 0.26,-0.47 0.33,-0.99 0.39,-1.5 0.05,-0.55 0,-1.1 -0.12,-1.64 -0.03,-0.16 -0.08,-0.32 -0.16,-0.45 -0.29,-0.42 -0.53,-0.87 -0.95,-1.19 -0.09,-0.06 -0.16,-0.16 -0.22,-0.26 -0.21,-0.32 -0.48,-0.58 -0.81,-0.78 -0.12,-0.07 -0.23,-0.18 -0.34,-0.27 -0.16,-0.12 -0.3,-0.28 -0.48,-0.37 -0.46,-0.24 -0.94,-0.44 -1.4,-0.68 -0.4,-0.21 -0.78,-0.45 -1.17,-0.67 -0.29,-0.16 -0.58,-0.32 -0.88,-0.46 -0.49,-0.21 -0.99,-0.41 -1.49,-0.6 -0.55,-0.21 -1,-0.57 -1.46,-0.93 -0.73,-0.58 -1.54,-1.06 -2.29,-1.63 -0.26,-0.19 -0.5,-0.48 -0.62,-0.77 -0.2,-0.52 -0.61,-0.81 -1.04,-1.06 -0.87,-0.5 -1.6,-1.15 -2.28,-1.87 -0.44,-0.46 -0.87,-0.93 -1.17,-1.5 -0.03,-0.06 -0.1,-0.1 -0.16,-0.14 -0.07,-0.05 -0.16,-0.09 -0.2,-0.16 -0.26,-0.5 -0.54,-0.99 -0.76,-1.51 -0.11,-0.29 -0.11,-0.63 -0.17,-0.94 -0.16,-0.81 -0.13,-1.61 -0.02,-2.42 0.05,-0.35 0.05,-0.7 0.08,-1.05 0.03,-0.52 0.25,-0.94 0.72,-1.22 0.08,-0.05 0.21,-0.1 0.23,-0.18 0.04,-0.17 0.06,-0.37 0.01,-0.54 -0.06,-0.19 -0.26,-0.15 -0.42,-0.12 -0.1,0.02 -0.2,0.04 -0.29,0.08 -0.57,0.2 -1.14,0.42 -1.72,0.62 -0.44,0.16 -0.52,0.28 -0.34,0.71 0.12,0.31 0.09,0.54 -0.14,0.79 -0.31,0.33 -0.49,0.74 -0.64,1.17 -0.38,1.03 -0.77,2.06 -1.08,3.12 -0.32,1.09 -0.7,2.16 -1.24,3.16 -0.18,0.34 -0.32,0.72 -0.45,1.09 -0.36,1.05 -0.92,2 -1.47,2.95 -0.2,0.34 -0.41,0.67 -0.6,1.02 -0.29,0.55 -0.81,0.76 -1.35,0.95 -0.19,0.07 -0.33,-0.03 -0.46,-0.15 -0.1,-0.09 -0.17,-0.2 -0.27,-0.28 -0.13,-0.1 -0.29,-0.13 -0.36,0.05 -0.12,0.28 -0.36,0.29 -0.61,0.33 -0.1,0.02 -0.27,0.08 -0.28,0.14 -0.01,0.11 0.04,0.27 0.12,0.34 0.21,0.17 0.43,0.34 0.68,0.45 0.27,0.11 0.41,0.29 0.49,0.55 0.15,0.44 0.12,0.86 -0.02,1.28 -0.18,0.51 -0.34,1.02 -0.51,1.53 -0.02,0.07 -0.04,0.14 -0.07,0.21 -0.21,0.62 -0.51,1.13 -1.3,1.06 -0.33,-0.04 -0.66,0.02 -1.05,0.04 -0.04,-0.44 -0.1,-0.85 -0.13,-1.26 -0.03,-0.33 -0.15,-0.45 -0.47,-0.5 -0.59,-0.1 -1.17,-0.2 -1.75,-0.31 -0.2,-0.03 -0.4,-0.08 -0.6,-0.12 -0.23,-0.05 -0.45,-0.11 -0.63,0.13 -0.04,0.06 -0.18,0.07 -0.27,0.07 -0.21,0 -0.41,-0.04 -0.61,-0.03 -0.09,0 -0.22,0.05 -0.25,0.11 -0.04,0.07 0,0.21 0.06,0.27 0.33,0.36 0.61,0.77 1.13,0.94 0.31,0.09 0.56,0.35 0.83,0.55 0.32,0.22 0.64,0.46 0.95,0.7 0.33,0.25 0.67,0.5 1,0.76 0.06,0.05 0.09,0.14 0.16,0.23 0.06,0 0.15,0 0.23,0.01 0.25,0.01 0.41,0.15 0.47,0.38 0.07,0.23 0.01,0.43 -0.16,0.6 -0.3,0.29 -0.59,0.6 -0.88,0.89 -0.11,0.12 -0.22,0.24 -0.35,0.34 -0.86,0.61 -1.73,1.22 -2.6,1.82 -0.2,0.14 -0.43,0.23 -0.65,0.34 -0.49,0.25 -0.51,0.34 -0.24,0.88 0.41,-0.07 0.83,-0.15 1.28,-0.23 0.07,0.41 -0.06,0.75 -0.2,1.07 -0.35,0.79 -0.76,1.54 -1.07,2.34 -0.51,1.34 -0.95,2.71 -1.43,4.07 -0.5,1.43 -0.82,2.91 -1.07,4.4 -0.14,0.82 -0.2,1.67 -0.3,2.5 -0.03,0.28 -0.01,0.58 -0.23,0.9 -0.11,-0.16 -0.2,-0.28 -0.28,-0.4 -0.6,-0.99 -1.02,-2.05 -1.24,-3.18 -0.2,-1.01 -0.39,-2.03 -0.61,-3.03 -0.07,-0.34 -0.2,-0.66 -0.33,-0.99 -0.39,-0.94 -0.79,-1.87 -1.17,-2.81 -0.18,-0.45 -0.33,-0.9 -0.47,-1.36 -0.11,-0.37 0.03,-0.62 0.4,-0.59 0.53,0.05 0.95,-0.09 1.34,-0.42 0.1,-0.1 0.26,-0.13 0.39,-0.19 0.25,-0.1 0.5,-0.14 0.75,0.01 0.16,0.09 0.33,0.1 0.43,-0.06 0.17,-0.23 0.38,-0.39 0.64,-0.49 0.05,-0.02 0.08,-0.09 0.11,-0.12 -0.01,-0.04 -0.01,-0.07 -0.02,-0.1 -0.28,-0.61 -0.75,-0.83 -1.43,-0.73 -0.43,0.07 -0.85,-0.09 -1.07,-0.5 -0.33,-0.59 -0.91,-0.71 -1.48,-0.79 -0.65,-0.09 -1.32,-0.08 -1.99,-0.11 -0.28,-0.01 -0.54,0.04 -0.79,0.17 -0.43,0.23 -0.72,0.06 -0.74,-0.42 -0.01,-0.49 -0.05,-0.96 -0.2,-1.42 -0.07,-0.19 -0.14,-0.38 -0.21,-0.56 -0.12,-0.36 -0.3,-0.7 -0.26,-1.12 0.22,-0.04 0.43,-0.1 0.64,-0.12 1.47,-0.13 2.93,-0.13 4.4,-0.08 0.72,0.02 1.45,-0.1 2.17,-0.15 0.16,-0.01 0.32,-0.03 0.48,-0.05 0.31,-0.02 0.59,-0.09 0.8,-0.36 0.14,-0.17 0.35,-0.29 0.57,-0.48 -0.14,-0.11 -0.23,-0.23 -0.34,-0.25 -0.27,-0.05 -0.55,-0.11 -0.82,-0.08 -0.41,0.04 -0.8,-0.02 -1.2,-0.12 -0.39,-0.09 -0.79,-0.18 -1.18,-0.28 -0.15,-0.04 -0.3,-0.1 -0.54,-0.18 0.7,-0.35 1.37,-0.5 2.02,-0.72 0.65,-0.22 1.31,-0.42 1.98,-0.64 -0.08,-0.27 -0.26,-0.32 -0.44,-0.36 -0.66,-0.12 -1.31,-0.24 -1.97,-0.35 -0.44,-0.07 -0.89,-0.13 -1.34,-0.19 -0.54,-0.08 -0.89,-0.46 -1.26,-0.8 -0.1,-0.09 -0.07,-0.36 -0.03,-0.53 0.05,-0.23 0.15,-0.45 0.26,-0.65 0.15,-0.28 0.46,-0.35 0.69,-0.16 0.54,0.45 1.12,0.84 1.48,1.51 0.08,-0.07 0.14,-0.12 0.2,-0.17 0.43,-0.42 0.92,-0.69 1.55,-0.52 0.07,0.01 0.15,-0.05 0.23,-0.07 -0.04,-0.08 -0.07,-0.2 -0.13,-0.23 -0.23,-0.12 -0.47,-0.21 -0.71,-0.31 -0.13,-0.05 -0.27,-0.09 -0.45,-0.15 0.07,-0.29 0.12,-0.57 0.19,-0.85 0.06,-0.21 0.25,-0.26 0.44,-0.32 0.5,-0.16 1.01,-0.34 1.51,-0.51 0.04,-0.02 0.08,-0.04 0.12,-0.06 0.17,-0.08 0.23,-0.22 0.17,-0.4 -0.06,-0.15 -0.2,-0.19 -0.36,-0.16 -0.31,0.05 -0.63,0.09 -0.94,0.14 -0.06,0.01 -0.13,0.04 -0.17,0.02 -0.48,-0.27 -0.96,-0.53 -1.43,-0.82 -0.08,-0.05 -0.13,-0.19 -0.14,-0.3 -0.08,-0.52 -0.15,-1.04 -0.68,-1.34 -0.06,-0.04 -0.09,-0.14 -0.1,-0.22 -0.06,-0.38 -0.13,-0.75 -0.13,-1.12 0,-0.26 0.06,-0.53 0.16,-0.76 0.25,-0.6 0.53,-1.2 0.81,-1.78 0.11,-0.23 0.08,-0.41 -0.05,-0.61 -0.2,-0.32 -0.15,-0.91 0.1,-1.21 0.33,-0.38 0.68,-0.75 0.99,-1.15 0.13,-0.16 0.24,-0.37 0.29,-0.57 0.22,-0.88 0.42,-1.78 0.63,-2.67 0.03,-0.15 0.09,-0.3 0.16,-0.44 0.32,-0.62 0.65,-1.24 0.96,-1.86 0.17,-0.34 0.61,-0.57 1,-0.53 0.12,0.02 0.24,0.03 0.35,0.03 0.47,0 0.82,0.19 1.09,0.59 0.77,1.12 1.55,2.25 2.38,3.33 0.59,0.79 1.27,1.51 1.92,2.25 0.09,0.1 0.22,0.19 0.35,0.22 0.76,0.19 1.52,0.37 2.29,0.54 0.12,0.03 0.26,-0.01 0.43,-0.02z"/>
 </g>
 <g id="Capa_x0020_1_0">
  <metadata id="CorelCorpID_1Corel-Layer"/>
  <path class="fil1" d="M0.28 0.95c-0.17,0.32 0.73,1.15 0.73,1.15 -0.31,-0.07 -0.75,0.28 -0.75,0.28 0.59,0.54 1.35,0.28 1.35,0.28l0.34 0.33c-0.47,-0.07 -1.11,0.41 -1.11,0.41 0.78,0.52 1.63,0.25 1.63,0.25l2.1 2.1c-0.11,0.03 -0.24,0.04 -0.39,0.05l-1.44 -1.45c-0.46,-0.45 -0.99,-0.25 -1.31,0.07 -0.2,0.2 -0.53,0.75 -0.04,1.23 0.48,0.49 0.89,0.14 0.96,0.06 0.08,-0.07 0.34,-0.32 0.04,-0.61 -0.29,-0.29 -0.59,0.11 -0.59,0.11 0,0 -0.25,-0.2 -0.04,-0.42 0.34,-0.34 0.52,-0.14 0.73,0.06l1.22 1.22 0 1.11 -1.25 0 0 127.9 1.25 0 0 1.11 -1.22 1.22c-0.21,0.2 -0.39,0.4 -0.73,0.06 -0.21,-0.22 0.04,-0.42 0.04,-0.42 0,0 0.3,0.4 0.59,0.11 0.3,-0.29 0.04,-0.54 -0.04,-0.61 -0.07,-0.08 -0.48,-0.43 -0.96,0.06 -0.49,0.48 -0.16,1.03 0.04,1.23 0.32,0.32 0.85,0.52 1.31,0.07l1.45 -1.45 0.15 0c0.09,0 0.17,0.01 0.24,0.04l-2.11 2.11c0,0 -0.85,-0.27 -1.63,0.26 0,0 0.64,0.47 1.11,0.4l-0.34 0.33c0,0 -0.76,-0.26 -1.35,0.28 0,0 0.44,0.35 0.75,0.28 0,0 -0.9,0.83 -0.73,1.15 0.33,0.18 1.16,-0.72 1.16,-0.72 -0.08,0.31 0.28,0.75 0.28,0.75 0.53,-0.59 0.27,-1.35 0.27,-1.35l0.34 -0.34c-0.07,0.47 0.4,1.11 0.4,1.11 0.53,-0.78 0.25,-1.63 0.25,-1.63l2.13 -2.12c0.03,0.08 0.04,0.17 0.04,0.26l0 0.13 -1.46 1.46c-0.45,0.45 -0.25,0.99 0.07,1.31 0.2,0.2 0.74,0.53 1.23,0.04 0.49,-0.49 0.14,-0.89 0.06,-0.96 -0.08,-0.08 -0.32,-0.34 -0.61,-0.05 -0.3,0.3 0.11,0.6 0.11,0.6 0,0 -0.21,0.25 -0.42,0.03 -0.34,-0.33 -0.14,-0.52 0.06,-0.72l1.21 -1.21 1.22 0 0 1.42 135.31 0 0 -1.42 1.23 0 1.2 1.21c0.21,0.2 0.4,0.39 0.07,0.72 -0.22,0.22 -0.42,-0.03 -0.42,-0.03 0,0 0.4,-0.3 0.11,-0.6 -0.3,-0.29 -0.54,-0.03 -0.62,0.05 -0.07,0.07 -0.43,0.47 0.06,0.96 0.49,0.49 1.03,0.16 1.24,-0.04 0.31,-0.32 0.52,-0.86 0.06,-1.31l-1.46 -1.46c0.01,-0.15 0.03,-0.27 0.06,-0.38l2.11 2.11c0,0 -0.28,0.85 0.25,1.63 0,0 0.47,-0.64 0.4,-1.11l0.34 0.34c0,0 -0.26,0.76 0.28,1.35 0,0 0.35,-0.44 0.27,-0.75 0,0 0.83,0.9 1.16,0.72 0.18,-0.32 -0.73,-1.15 -0.73,-1.15 0.32,0.07 0.75,-0.28 0.75,-0.28 -0.59,-0.54 -1.35,-0.28 -1.35,-0.28l-0.34 -0.33c0.47,0.07 1.11,-0.4 1.11,-0.4 -0.78,-0.53 -1.63,-0.26 -1.63,-0.26l-2.1 -2.1c0.11,-0.03 0.24,-0.04 0.39,-0.05l1.44 1.45c0.46,0.45 1,0.25 1.31,-0.07 0.21,-0.2 0.53,-0.75 0.05,-1.23 -0.49,-0.49 -0.89,-0.14 -0.97,-0.06 -0.07,0.07 -0.33,0.32 -0.04,0.61 0.29,0.29 0.6,-0.11 0.6,-0.11 0,0 0.25,0.2 0.03,0.42 -0.34,0.34 -0.52,0.14 -0.73,-0.06l-1.21 -1.22 0 -1.11 1.24 0 0 -0.38 0 -127.52 -1.24 0 0 -1.11 1.21 -1.22c0.21,-0.2 0.39,-0.4 0.73,-0.06 0.22,0.22 -0.03,0.42 -0.03,0.42 0,0 -0.31,-0.4 -0.6,-0.11 -0.29,0.29 -0.03,0.54 0.04,0.61 0.08,0.08 0.48,0.43 0.97,-0.06 0.48,-0.48 0.16,-1.03 -0.05,-1.23 -0.31,-0.32 -0.85,-0.52 -1.31,-0.07l-1.44 1.45c-0.15,-0.01 -0.28,-0.02 -0.39,-0.05l2.1 -2.1c0,0 0.85,0.27 1.63,-0.25 0,0 -0.64,-0.48 -1.11,-0.41l0.34 -0.33c0,0 0.76,0.26 1.35,-0.28 0,0 -0.43,-0.35 -0.75,-0.28 0,0 0.91,-0.83 0.73,-1.15 -0.33,-0.18 -1.16,0.72 -1.16,0.72 0.08,-0.31 -0.27,-0.75 -0.27,-0.75 -0.54,0.59 -0.28,1.36 -0.28,1.36l-0.34 0.33c0.07,-0.47 -0.4,-1.11 -0.4,-1.11 -0.53,0.78 -0.25,1.63 -0.25,1.63l-2.11 2.11c-0.03,-0.11 -0.05,-0.23 -0.06,-0.38l1.46 -1.46c0.46,-0.45 0.25,-0.99 -0.06,-1.31 -0.21,-0.2 -0.75,-0.53 -1.24,-0.04 -0.49,0.49 -0.13,0.89 -0.06,0.96 0.08,0.08 0.32,0.34 0.62,0.05 0.29,-0.3 -0.11,-0.6 -0.11,-0.6 0,0 0.2,-0.25 0.42,-0.03 0.33,0.34 0.14,0.52 -0.07,0.72l-1.2 1.21 -1.23 0 0 -1.42 -135.31 0 0 1.42 -1.22 0 -1.21 -1.21c-0.2,-0.2 -0.4,-0.39 -0.06,-0.72 0.21,-0.22 0.42,0.03 0.42,0.03 0,0 -0.41,0.3 -0.11,0.6 0.29,0.29 0.53,0.03 0.61,-0.05 0.08,-0.07 0.43,-0.47 -0.06,-0.96 -0.49,-0.49 -1.03,-0.16 -1.23,0.04 -0.32,0.32 -0.52,0.86 -0.07,1.31l1.46 1.46c-0.01,0.15 -0.02,0.28 -0.05,0.39l-2.12 -2.12c0,0 0.28,-0.85 -0.25,-1.63 0,0 -0.47,0.64 -0.4,1.11l-0.34 -0.33c0,0 0.26,-0.77 -0.27,-1.36 0,0 -0.36,0.44 -0.28,0.75 0,0 -0.83,-0.9 -1.16,-0.72zm143.13 134.99l-1.15 -1.15 0.22 -0.22 1.24 1.24c-0.12,0.03 -0.22,0.07 -0.31,0.13zm0.69 -0.53l-0.03 0 -1.61 -1.61 -0.53 0.54 -0.23 -0.23 -0.1 -0.5 -0.93 0.11 -0.11 0.93 0.51 0.1 0.22 0.22 -0.53 0.54 1.61 1.61 -0.01 0.04 -1.18 0 0 1.42 -133.81 0 0 -1.42 -1.18 0 0 -0.04 1.6 -1.61 -0.53 -0.54 0.22 -0.22 0.51 -0.1 -0.11 -0.93 -0.93 -0.11 -0.1 0.5 -0.23 0.23 -0.53 -0.54 -1.61 1.61 -0.03 0 0 -1.08 -1.24 0 0 -126.4 1.24 0 0 -1.08 0.03 0 1.61 1.61 0.53 -0.54 0.23 0.23 0.1 0.5 0.93 -0.11 0.11 -0.93 -0.51 -0.1 -0.22 -0.22 0.53 -0.54 -1.6 -1.61 0 -0.04 1.18 0 0 -1.42 133.81 0 0 1.42 1.18 0 0.01 0.04 -1.61 1.61 0.53 0.54 -0.22 0.22 -0.51 0.1 0.11 0.93 0.93 0.11 0.1 -0.5 0.23 -0.23 0.53 0.54 1.61 -1.61 0.03 0 0 1.08 1.24 0 0 126.4 -1.24 0 0 1.08zm-1.34 1.34l-1.23 -1.22 0.22 -0.22 1.14 1.14c-0.06,0.09 -0.1,0.19 -0.13,0.3zm-137.61 -130.42l1.14 1.14 -0.22 0.22 -1.23 -1.24c0.11,-0.03 0.21,-0.07 0.31,-0.12zm0.65 -0.82l1.22 1.22 -0.22 0.22 -1.13 -1.14c0.05,-0.09 0.09,-0.19 0.13,-0.3zm-0.66 130.43l1.15 -1.15 -0.22 -0.22 -1.22 1.23c0.1,0.04 0.2,0.08 0.29,0.14zm0.66 0.81l1.22 -1.22 -0.22 -0.22 -1.14 1.14c0.06,0.09 0.11,0.19 0.14,0.3zm137.61 -130.43l-1.15 1.15 0.22 0.22 1.24 -1.24c-0.12,-0.03 -0.22,-0.07 -0.31,-0.13zm-0.65 -0.81l-1.23 1.22 0.22 0.22 1.14 -1.14c-0.06,-0.09 -0.1,-0.19 -0.13,-0.3z"/>
  <path class="fil2" d="M0 127.95l0 -114.02 0.37 0c3.73,0 7.12,-1.52 9.58,-3.98 2.46,-2.46 3.98,-5.85 3.98,-9.58l0 -0.37 120.69 0 0 0.37c0,3.73 1.52,7.12 3.98,9.58 2.46,2.46 5.85,3.98 9.58,3.98l0.37 0 0 114.4 -0.37 0c-3.73,0 -7.12,1.52 -9.58,3.98 -2.46,2.46 -3.98,5.85 -3.98,9.58l0 0.37 -120.69 0 0 -0.37c0,-3.73 -1.52,-7.12 -3.98,-9.58 -2.46,-2.46 -5.85,-3.98 -9.58,-3.98l-0.37 0 0 -0.38zm0.75 -113.28l0 112.92c3.78,0.09 7.22,1.68 9.73,4.19 2.51,2.51 4.1,5.95 4.19,9.74l119.21 0c0.1,-3.79 1.68,-7.23 4.2,-9.74 2.51,-2.51 5.94,-4.1 9.73,-4.19l0 -112.92c-3.79,-0.09 -7.22,-1.68 -9.73,-4.19 -2.52,-2.51 -4.1,-5.95 -4.2,-9.73l-119.21 0c-0.09,3.78 -1.68,7.22 -4.19,9.73 -2.51,2.51 -5.95,4.1 -9.73,4.19z"/>
 </g>
</svg>
